<svg width="40" height="40" fill="none" xmlns="http://www.w3.org/2000/svg"><g id="Frame" clip-path="url(#clip0_100_22)"><path id="Vector" d="M6.667 10.69L1.262 5.287 3.62 2.928l5.403 5.405h25.404a1.666 1.666 0 011.596 2.145l-4 13.334A1.667 1.667 0 0130.427 25H10v3.333h18.333v3.334h-20A1.667 1.667 0 016.667 30V10.69zm2.5 27.643a2.5 2.5 0 110-5 2.5 2.5 0 010 5zm20 0a2.5 2.5 0 110-5 2.5 2.5 0 010 5z" fill="#fff"/></g><defs><clipPath id="clip0_100_22"><path fill="#fff" d="M0 0h40v40H0z"/></clipPath></defs></svg>