<svg width="121" height="51" fill="none" xmlns="http://www.w3.org/2000/svg"><g clip-path="url(#clip0_100_54)" fill-rule="evenodd" clip-rule="evenodd"><path d="M77.859 40.25c-2.203.617-5.071.873-7.53.873-6.403 0-10.603-3.34-10.603-9.458 0-5.809 3.944-9.561 9.681-9.561 1.28 0 2.664.154 3.483.565v-8.43h4.969v26.01zM72.89 26.987c-.768-.36-1.844-.565-3.073-.565-3.022 0-5.02 1.85-5.02 5.089 0 3.444 2.151 5.397 5.686 5.397.614 0 1.588 0 2.407-.205v-9.716zm45.794 13.263c-2.203.617-5.071.873-7.581.873-6.352 0-10.603-3.34-10.603-9.458 0-5.809 3.944-9.561 9.681-9.561 1.332 0 2.663.154 3.483.565v-8.43h5.02v26.01zm-5.02-13.263c-.768-.36-1.793-.565-3.022-.565-3.074 0-5.071 1.85-5.071 5.089 0 3.444 2.202 5.397 5.737 5.397.614 0 1.536 0 2.356-.205v-9.716zm-27.968 0c.82-.36 1.998-.462 2.971-.462 3.073 0 5.174 1.747 5.174 4.883 0 3.701-2.357 5.398-5.481 5.449v4.267h.256c6.454 0 10.296-3.547 10.296-9.87 0-5.758-4.098-9.15-10.143-9.15-3.073 0-6.095.72-8.093 1.542v24.417h5.02V26.987z" fill="#000"/><path d="M41.388 10.23l.82.925.46-.257-1.28-.668z" fill="#DC0032"/><path d="M40.159 9.561l1.587 1.85.564-.308-.615-.72-1.536-.822z" fill="#DC0032"/><path d="M38.878 8.893l2.408 2.776.563-.309-1.383-1.645-1.588-.822z" fill="#DC0032"/><path d="M37.649 8.225l3.176 3.7.563-.308-2.202-2.57-1.537-.822zm6.095 6.528l-.358.206.358.41v-.616z" fill="#DC0032"/><path d="M36.42 7.556l3.944 4.627.563-.309-2.97-3.495-1.538-.823zm7.12 7.3l-.564.36.768.925v-.977l-.205-.308z" fill="#DC0032"/><path d="M35.14 6.888l4.763 5.552.615-.308-3.79-4.421-1.589-.823zm7.939 8.225l-.564.36 1.23 1.439v-.977l-.666-.822z" fill="#DC0032"/><path d="M33.91 6.22l5.583 6.477.563-.308-4.61-5.347-1.536-.822zm8.708 9.201l-.564.309 1.69 2.005v-.977l-1.126-1.337z" fill="#DC0032"/><path d="M32.68 5.552l6.352 7.402.563-.309-5.378-6.27-1.537-.823zm9.476 10.126l-.563.309 2.151 2.519v-.977l-1.588-1.85z" fill="#DC0032"/><path d="M31.4 4.883l7.171 8.328.564-.309-6.147-7.196-1.588-.823zm10.296 11.052l-.564.309 2.613 3.033V18.3l-2.05-2.365z" fill="#DC0032"/><path d="M30.17 4.215l7.94 9.304.563-.36-6.966-8.121-1.537-.823zm11.065 11.977l-.564.309 3.074 3.598v-.977l-2.51-2.93z" fill="#DC0032"/><path d="M28.89 3.547l8.759 10.23.563-.36-7.734-9.048-1.588-.822zm11.935 12.902l-.615.309 3.534 4.112v-.977l-2.92-3.444z" fill="#DC0032"/><path d="M27.66 2.879l9.528 11.154.614-.36-8.554-9.972-1.588-.822zm12.704 13.827l-.564.309 3.944 4.678v-1.028l-3.38-3.959z" fill="#DC0032"/><path d="M26.431 2.21l10.347 12.08.564-.36-9.374-10.897-1.537-.823zm13.472 14.753l-.564.309 4.406 5.192v-.977l-3.842-4.524z" fill="#DC0032"/><path d="M25.15 1.49l11.167 13.057.563-.36L26.738 2.366 25.15 1.49zm14.292 15.73l-.564.309 4.866 5.706v-.977l-4.302-5.037z" fill="#DC0032"/><path d="M23.92.822l11.936 13.982.563-.308-10.91-12.8L23.92.822zm15.06 16.655l-.563.309 5.327 6.271V23.03l-4.764-5.552z" fill="#DC0032"/><path d="M22.692.206l12.703 14.856.564-.309-11.73-13.725-1.537-.822zM38.52 17.735l-.564.308 5.788 6.785v-.976l-5.224-6.117z" fill="#DC0032"/><path d="M21.872 0l13.062 15.319.563-.309L23 .36l-.307-.154C22.436.05 22.179 0 21.872 0zM38.06 17.991l-.564.309 6.25 7.3v-.977l-5.686-6.632z" fill="#DC0032"/><path d="M21.872 0c-.205 0-.41.051-.615.103l13.216 15.473.614-.309L22.026 0h-.154zm15.777 18.249l-.564.308 6.66 7.865v-1.028l-6.096-7.145z" fill="#DC0032"/><path d="M21.411.051c-.102.052-.256.103-.307.155l-.308.154 13.267 15.472.563-.308L21.412.051zm15.777 18.455l-.564.36 7.12 8.327v-.977l-6.556-7.71z" fill="#DC0032"/><path d="M20.899.257l-.564.308L33.602 16.09l.564-.309L20.899.257zm15.828 18.506l-.564.36 7.581 8.841v-.977l-7.017-8.224z" fill="#DC0032"/><path d="M20.438.514l-.563.308L33.14 16.347l.564-.309L20.438.514zM36.266 19.02l-.564.36 8.042 9.407v-.977l-7.478-8.79z" fill="#DC0032"/><path d="M19.977.771l-.563.308L32.68 16.604l.564-.309L19.977.771zm15.828 18.506l-.564.36 8.504 9.92v-.976l-7.94-9.304z" fill="#DC0032"/><path d="M19.516 1.028l-.563.308 13.266 15.525.564-.309L19.516 1.028zm15.828 18.506l-.563.36 8.964 10.435v-.977l-8.401-9.818z" fill="#DC0032"/><path d="M19.055 1.285l-.563.309 13.267 15.524.563-.309L19.055 1.285zm15.88 18.506l-.564.36 9.374 11v-.977l-8.81-10.383z" fill="#DC0032"/><path d="M18.594 1.49l-.564.36 13.318 15.525.564-.309L18.594 1.491zM34.473 20.1l-.564.308 9.835 11.514v-.977L34.473 20.1z" fill="#DC0032"/><path d="M18.133 1.748l-.564.308 13.318 15.576.564-.309L18.133 1.748zm15.879 18.608l-.564.309 10.296 12.08v-1.028l-9.732-11.36z" fill="#DC0032"/><path d="M17.672 2.005l-.564.308L30.426 17.94l.564-.36L17.672 2.005zM33.55 20.613l-.564.309 10.757 12.594v-.977L33.551 20.613z" fill="#DC0032"/><path d="M17.21 2.262l-.563.308 13.319 15.627.563-.36L17.21 2.262zM33.09 20.87l-.563.309 11.217 13.108v-.977L33.09 20.87z" fill="#DC0032"/><path d="M16.75 2.519l-.564.308 13.319 15.627.563-.36L16.75 2.52zm15.88 18.608l-.564.309 11.678 13.673v-1.028L32.63 21.127z" fill="#DC0032"/><path d="M16.289 2.776l-.563.308 13.318 15.627.563-.36L16.289 2.776zm15.93 18.608l-.563.309L43.745 35.88v-.977L32.219 21.385z" fill="#DC0032"/><path d="M15.828 2.981l-.615.309 13.42 15.678.564-.36L15.828 2.981zm15.93 18.66l-.563.309 12.55 14.701v-.976L31.758 21.64z" fill="#DC0032"/><path d="M15.367 3.238l-.615.309 13.472 15.73a.401.401 0 01.204-.206l.308-.206-13.37-15.627zm15.93 18.66l-.563.309L43.642 37.32c.05-.155.102-.309.102-.463v-.411L31.297 21.898z" fill="#DC0032"/><path d="M14.906 3.495l-.615.309 13.779 16.09v-.206c0-.154.102-.36.205-.514L14.905 3.495zm15.93 18.66l-.41.257c-.05 0-.102.052-.153.052l13.113 15.37a1.74 1.74 0 00.307-.617L30.836 22.155z" fill="#DC0032"/><path d="M14.445 3.752l-.615.309 14.24 16.655v-1.028L14.445 3.753zm14.957 18.455l13.625 15.986c.154-.102.307-.308.461-.462L30.375 22.412a.872.872 0 01-.717 0l-.256-.205z" fill="#DC0032"/><path d="M13.984 4.01l-.615.308L42.566 38.45l.41-.206.154-.154-13.42-15.679h-.052l-1.178-.72c-.103-.05-.154-.154-.256-.256-.103-.155-.103-.257-.154-.36v-.566L13.984 4.01z" fill="#DC0032"/><path d="M13.523 4.267l-.615.308 29.197 34.133.564-.309L13.523 4.267z" fill="#DC0032"/><path d="M13.062 4.472l-.615.309 29.249 34.184.563-.309L13.062 4.472z" fill="#DC0032"/><path d="M12.601 4.73l-.615.308 29.249 34.184.563-.309L12.601 4.73z" fill="#DC0032"/><path d="M12.14 4.986l-.615.309 29.249 34.184.563-.309L12.14 4.986z" fill="#DC0032"/><path d="M11.627 5.243l-.563.309 29.248 34.235.564-.36L11.627 5.243z" fill="#DC0032"/><path d="M11.166 5.5l-.563.309 29.248 34.235.564-.36L11.167 5.5z" fill="#DC0032"/><path d="M10.706 5.757l-.564.309 29.3 34.235.563-.36-29.3-34.184z" fill="#DC0032"/><path d="M10.245 5.963l-.564.308 29.3 34.287.563-.36-29.3-34.235z" fill="#DC0032"/><path d="M9.784 6.22l-.564.308 29.3 34.287.563-.308L9.783 6.22z" fill="#DC0032"/><path d="M9.323 6.477l-.564.308L23 23.44l.461.309c.205.103.41.36.41.617v.051L38.06 41.072l.563-.308-29.3-34.287z" fill="#DC0032"/><path d="M8.862 6.734l-.564.308 13.37 15.679 1.69.925L8.862 6.734zM23.819 24.21c0 .052.051.103.051.155v.873l13.728 16.09.563-.308L23.82 24.21z" fill="#DC0032"/><path d="M8.4 6.991l-.563.308 12.498 14.65 1.69.926L8.4 6.991zm15.47 18.043v.977l13.318 15.575.563-.308L23.87 25.034z" fill="#DC0032"/><path d="M7.94 7.248l-.564.308L19.055 21.18l1.639.925L7.939 7.248zm15.93 18.557v1.028l12.857 15.01.563-.308-13.42-15.73z" fill="#DC0032"/><path d="M7.479 7.454l-.564.308 10.808 12.646 1.64.976L7.478 7.454zm16.39 19.174v.976L36.267 42.1l.563-.308-12.96-15.165z" fill="#DC0032"/><path d="M7.018 7.71l-.564.31 9.937 11.617 1.64.976L7.018 7.711zM23.87 27.399v.977l11.935 13.982.563-.308L23.87 27.4z" fill="#DC0032"/><path d="M6.557 7.968l-.564.308 9.067 10.64 1.639.926L6.557 7.968zM23.87 28.17v1.028l11.474 13.468.563-.36L23.87 28.17z" fill="#DC0032"/><path d="M6.096 8.225l-.564.308 8.196 9.613 1.639.925L6.096 8.225zM23.87 28.992v.977l11.064 12.954.564-.36-11.628-13.57z" fill="#DC0032"/><path d="M5.635 8.482l-.564.308 7.325 8.585 1.69.925-8.451-9.818zM23.87 29.763v.977l10.603 12.44.564-.36L23.87 29.763z" fill="#DC0032"/><path d="M5.173 8.739l-.563.308 6.454 7.557 1.69.976-7.58-8.841zm13.42 16.655l1.332 1.542v-.566c0-.102-.102-.257-.204-.308l-1.127-.668zm5.277 5.14v1.028l10.142 11.875.563-.36L23.87 30.534z" fill="#DB0032"/><path d="M4.712 8.944l-.563.309 5.583 6.58 1.69.976-6.71-7.865zm12.55 15.679l2.664 3.084v-.977l-.974-1.13-1.69-.977zm6.608 6.734v.976l9.68 11.36.564-.308L23.87 31.357z" fill="#DC0032"/><path d="M4.251 9.201l-.563.309 4.764 5.603 1.639.925-5.84-6.837zm11.68 14.702l3.995 4.626v-.976l-2.305-2.725-1.69-.925zm7.939 8.225v.976l9.22 10.847.563-.309-9.783-11.514z" fill="#DC0032"/><path d="M3.79 9.458l-.563.309 3.893 4.575 1.64.925-4.97-5.809zm10.86 13.674l5.276 6.168v-.976l-3.637-4.267-1.64-.925zm9.22 9.818v.977l8.81 10.28.564-.308L23.87 32.95z" fill="#DC0032"/><path d="M3.33 9.715l-.564.309 3.022 3.547 1.64.925-4.098-4.78zm9.988 12.646l6.608 7.71v-.976l-4.969-5.757-1.639-.977zm10.552 11.36v.977l8.35 9.767.563-.309-8.913-10.435z" fill="#DC0032"/><path d="M2.869 9.972l-.564.309L4.457 12.8l1.639.976-3.227-3.804zm9.117 11.618l7.94 9.304v-.977l-6.3-7.35-1.64-.977zM23.87 34.492v.977l7.888 9.253.564-.309-8.452-9.92z" fill="#DC0032"/><path d="M2.408 10.23l-.564.308 1.28 1.49 1.691.977-2.407-2.776zm8.247 10.64l9.271 10.795v-.977l-7.632-8.892-1.64-.926zM23.87 35.315v.977l7.427 8.687.564-.309-7.99-9.355z" fill="#DC0032"/><path d="M1.947 10.435l-.615.308.461.566 1.69.925-1.536-1.799zM9.323 20.1l10.603 12.389V31.46l-8.913-10.435-1.69-.925zM23.87 36.086v.977l6.966 8.224.564-.36-7.53-8.841z" fill="#DC0032"/><path d="M1.486 10.692l-.36.206 1.025.565-.665-.77zm6.505 8.636l11.935 13.93v-.976L9.68 20.305l-1.69-.977zM23.87 36.857v1.028l6.556 7.66.564-.36-7.12-8.328z" fill="#DC0032"/><path d="M6.71 18.557L19.926 34.03v-.977L8.348 19.533l-1.639-.976zm17.16 19.122v.977l6.095 7.145.564-.36-6.66-7.762z" fill="#DC0032"/><path d="M5.378 17.837l14.548 17.015v-1.028L7.018 18.763l-1.64-.926zM23.87 38.45v.977l5.634 6.631.564-.36-6.198-7.248z" fill="#DC0032"/><path d="M4.046 17.066l15.88 18.557v-.976L5.685 17.992l-1.64-.926zM23.87 39.221v1.029l5.173 6.065.564-.308-5.737-6.785z" fill="#DC0032"/><path d="M2.715 16.295l17.21 20.1v-.977L4.355 17.272l-1.64-.977zM23.87 40.044v.977l4.712 5.551.564-.308-5.276-6.22z" fill="#DB0032"/><path d="M1.383 15.524l18.543 21.693v-.977L3.021 16.5l-1.64-.976zM23.87 40.815v.977l4.302 5.037.564-.308-4.866-5.706z" fill="#DA0032"/><path d="M.051 14.804l19.875 23.184v-.977L1.742 15.73l-1.69-.926zM23.87 41.586v1.028l3.842 4.472.563-.308-4.405-5.192z" fill="#D90032"/><path d="M0 14.753v.72l19.926 23.286v-.977L.41 14.96 0 14.753zM23.87 42.41v.617a.393.393 0 01-.103.256l3.484 4.062.563-.309-3.944-4.626z" fill="#D80032"/><path d="M0 15.267v1.028l19.926 23.286v-.976L0 15.267zM23.819 43.18c-.052.205-.205.41-.359.462l-.051.052 3.38 3.906.564-.308-3.534-4.112z" fill="#D70032"/><path d="M0 16.09v.976l19.926 23.286v-.976L0 16.09zm23.511 27.5c0 .052 0 .052-.05.052l-.513.309 3.38 3.907.564-.309-3.38-3.958z" fill="#D60032"/><path d="M0 16.86v.977l19.926 23.287v-.977L0 16.86zm23.102 26.988l-.615.36 3.432 3.958.563-.36-3.38-3.958z" fill="#D50032"/><path d="M0 17.683v.977l19.926 23.286v-.977L0 17.683zm22.64 26.422l-.358.206c-.102.051-.205.051-.307.051l3.483 4.061.563-.36-3.38-3.958z" fill="#D40032"/><path d="M0 18.454v.977l19.926 23.286v-.977L0 18.454zm21.053 25.65l3.944 4.576.563-.36-3.432-3.958c-.05 0-.153.051-.204.051h-.052a.738.738 0 01-.358-.102l-.461-.206z" fill="#D30032"/><path d="M0 19.225v1.028l24.536 28.684.563-.36-3.688-4.318-1.127-.617c-.205-.103-.358-.36-.358-.617v-.514L0 19.225z" fill="#D20032"/><path d="M0 20.048v.976l24.075 28.17.563-.308L0 20.048z" fill="#D10032"/><path d="M0 20.819v.977L23.614 49.45l.563-.308L0 20.819z" fill="#D00032"/><path d="M0 21.59v1.028l23.204 27.09.563-.308L0 21.59z" fill="#CF0032"/><path d="M0 22.412v.977l22.743 26.576.563-.308L0 22.412z" fill="#CE0032"/><path d="M0 23.183v.977l22.23 26.01c.154-.05.308-.102.462-.154l.154-.102L0 23.184z" fill="#CD0032"/><path d="M0 23.954v1.029L21.565 50.17h.307c.154 0 .308 0 .461-.052L0 23.954z" fill="#CC0032"/><path d="M0 24.777v.977l20.387 23.851.717.412c.154.102.41.154.615.154L0 24.777z" fill="#CB0032"/><path d="M0 25.548v.977l19.055 22.31 1.69.976L0 25.548z" fill="#CA0032"/><path d="M0 26.37v.977l17.723 20.716 1.69.977L0 26.37z" fill="#C90032"/><path d="M0 27.142v.976l16.391 19.174 1.64.977L0 27.142z" fill="#C80033"/><path d="M0 27.913v.976l15.06 17.632 1.639.977L0 27.913z" fill="#C70033"/><path d="M0 28.735v.977l13.677 15.987 1.69.976L0 28.735z" fill="#C60033"/><path d="M0 29.506v.977l12.345 14.444 1.69.977L0 29.506z" fill="#C50033"/><path d="M0 30.277v.977l11.013 12.902 1.69.977L0 30.277z" fill="#C40033"/><path d="M0 31.1v.976l9.681 11.31 1.69.976L0 31.1z" fill="#C30033"/><path d="M0 31.87v.977l8.35 9.767 1.69.977L0 31.87z" fill="#C20033"/><path d="M0 32.642v1.028l7.018 8.173 1.639.977L0 32.642z" fill="#C10033"/><path d="M0 33.464v.977l5.635 6.631 1.69.977L0 33.464z" fill="#C00033"/><path d="M0 34.235v.977l4.303 5.09 1.69.924L0 34.236z" fill="#BF0033"/><path d="M0 35.006v1.028l2.97 3.445 1.691.976L0 35.006z" fill="#BE0033"/><path d="M0 35.829v.977l1.64 1.902 1.69.976L0 35.83z" fill="#BD0033"/><path d="M0 36.6v.257c0 .514.359 1.13.768 1.388l1.23.668L0 36.6z" fill="#BC0033"/><path d="M.307 37.782c.103.103.154.206.256.257l-.256-.257z" fill="#B03"/></g><defs><clipPath id="clip0_100_54"><path fill="#fff" d="M0 0h121v51H0z"/></clipPath></defs></svg>