<svg width="244" height="37" fill="none" xmlns="http://www.w3.org/2000/svg"><g clip-path="url(#clip0_100_155)"><path d="M4.202 25.957L20.78 29.14l1.288-2.223L7.332 20.55l-3.13 5.407zm7.68-13.267l12.895 9.554 1.288-2.224L15.013 7.282l-3.13 5.408h-.001zM8.03 19.348l14.736 6.369 1.313-2.272-12.895-9.553-3.154 5.456zM19.227 0l-3.48 6.02L26.8 18.76l1.638-2.824L19.227 0zM0 33.227h18.42l1.637-2.824L3.48 27.22 0 33.227zm29.231-7.438l4.31 7.438h4.9l-9.21-15.922-9.21 15.922h4.9l4.31-7.438z" fill="#FCAF17"/><path d="M68.43 33.203h7.02l1.613-2.848H68.43l-.001 2.848zm0-7.908v2.848h9.91l1.649-2.848h-11.56zm148.784 3.377V20.26h-3.107v12.943h2.601l7.476-8.472v8.472h3.106V20.26h-2.744l-7.332 8.412zM86.694 20.26l-7.44 12.943h3.66l4.9-8.545 4.937 8.545h3.853l-7.44-12.943h-2.47zM64.34 30.354L56.899 17.4h-2.54l-7.441 12.954h-1.866V37h2.96v-3.798h15.23V37h2.963v-6.646h-1.866zm-13.713 0l4.9-8.556 4.936 8.556h-9.836zm115.25-10.094h-14.459v2.848h12.797l1.662-2.848zm-83 0H68.432v2.848H81.23l1.649-2.848zm158.378 0l-7.332 8.412V20.26h-3.106v12.943h2.612l7.465-8.472v8.472H244V20.26h-2.745zm-33.782 5.035h-6.802V20.26h-3.107v12.943h3.107v-5.06h6.802v5.06h3.106V20.26h-3.106v5.035zm-37.791-5.035l-7.44 12.943h3.672l4.9-8.545 4.936 8.545h3.841L172.15 20.26h-2.468zm-30.701 4.64h-4.719v-4.651h-3.106v12.954h7.801c2.107 0 4.298-1.165 4.298-4.218-.012-4.013-2.829-4.085-4.274-4.085zm-.18 5.564h-4.551V27.58h4.551c.529 0 1.336.144 1.336 1.442 0 1.201-.662 1.442-1.336 1.442zm9.102-10.204h-3.07v12.955h3.07V20.26zm-43.473-.313c-5.19 0-7.645 3.173-7.645 6.718 0 3.701 2.395 6.717 7.645 6.717 2.287 0 7.584-1.057 7.584-6.717 0-3.701-2.371-6.718-7.584-6.718zm-.036 10.587c-2.998 0-4.262-1.718-4.262-3.833 0-2.32 1.444-3.87 4.262-3.87 3.178 0 4.261 1.55 4.261 3.87 0 2.776-2.082 3.833-4.261 3.833zm47.024 2.669h7.019l1.625-2.848h-8.644v2.848zm0-7.908v2.848h9.908l1.661-2.848h-11.569zm32.543 3.305v-8.34h-3.106v12.943h2.613l7.476-8.4v8.4h3.106V20.26h-2.612l-7.477 8.34zm-58.391-3.028c.818-.349 1.517-.913 1.517-2.32 0-2.68-2.252-2.992-3.841-2.992h-8.391v12.955h8.536c3.912 0 4.719-2.151 4.719-4.122.012-2.223-1.252-3.137-2.54-3.521zM117.925 23h4.972c.746 0 1.059.385 1.059 1.13 0 .769-.493 1.165-1.059 1.165h-4.972V23zm5.466 7.463h-5.466v-2.776h5.466c.878 0 1.517.216 1.517 1.37 0 .913-.386 1.406-1.517 1.406z" fill="#000"/></g><defs><clipPath id="clip0_100_155"><path fill="#fff" d="M0 0h244v37H0z"/></clipPath></defs></svg>