<svg width="498" height="325" fill="none" xmlns="http://www.w3.org/2000/svg"><path d="M240.503 196.623h-146.9a.956.956 0 110-1.911h146.9a.957.957 0 01.675 1.632.953.953 0 01-.675.279z" fill="#000"/><path d="M169.967 225.153a.954.954 0 01-.956-.956V60.237a.954.954 0 01.956-.955.955.955 0 01.957.956v163.959a.959.959 0 01-.957.956z" fill="#000"/><path d="M242.557 242.976H91.262V58.517h151.295v184.459zm-149.384-1.91h147.472V60.429H93.173v180.637zm256.523 75.981l4.54 103.747a4.125 4.125 0 01-.223 1.657 4.16 4.16 0 01-3.839 2.787l-34.311.574a4.108 4.108 0 01-4.206-3.632l-8.84-73.88-4.875 73.402a4.112 4.112 0 01-4.157 3.871l-36.558-.574a4.141 4.141 0 01-2.912-1.285 4.164 4.164 0 01-1.15-2.968l1.338-52.947 95.193-50.752z" fill="#000"/><path d="M227.696 243.36H34.156a.954.954 0 01-.956-.956.955.955 0 01.956-.956h193.54a.957.957 0 010 1.912zm16.103 15.338H50.642a.951.951 0 01-.956-.954.956.956 0 01.956-.956H243.8a.958.958 0 01.956.956.957.957 0 01-.956.954zm220.062-15.338h-96.626a.955.955 0 110-1.912h96.626a.955.955 0 010 1.912zm-6.787 15.338h-90.939a.953.953 0 01-.955-.954.957.957 0 01.955-.956h90.939a.956.956 0 110 1.91z" fill="#000"/><path d="M112.001 314.61l11.231-148.857 93.712-14.623 148.618 31.492-11.66 135.43-69.149 62.457-172.752-65.899z" fill="#3474C9"/><path d="M284.753 381.465h-.094a.91.91 0 01-.636-.348.9.9 0 01-.161-.334.878.878 0 01-.017-.368l19.402-169.025-172.417-42.722a1.007 1.007 0 01-.717-1.195.956.956 0 011.147-.669l174.091 43.152-.097.813-19.545 169.836a.95.95 0 01-.312.615.95.95 0 01-.644.245z" fill="#000"/><path d="M304.298 211.629a.957.957 0 01-.86-.574.946.946 0 01-.035-.747.948.948 0 01.513-.543l40.476-17.251a.962.962 0 11.764 1.768l-40.476 17.251-.382.096zm-2.772-94.763a15.623 15.623 0 01-7.837-1.959c-17.538-9.653-15.149-51.563-15.005-53.331a.95.95 0 01.634-.854.953.953 0 01.726.037.915.915 0 01.468.547.941.941 0 01.036.366c0 .43-2.438 42.483 14.049 51.562 6.69 3.68 15.77 1.482 26.952-6.642a.952.952 0 011.338.239.958.958 0 01-.191 1.338c-8.091 5.766-15.148 8.665-21.17 8.697zm43.774 6.403h-.43c-3.584-1.672-7.933-9.27-8.22-10.991l-4.396-24.61.573-.335c.048-.048 5.878-3.488 6.786-7.646a4.492 4.492 0 00-.812-3.823c-1.004-1.481-2.007-2.198-3.011-2.102-2.007.19-3.918 3.44-4.444 4.683a.98.98 0 01-.546.506.975.975 0 01-1.25-.575.959.959 0 01.028-.744c.239-.525 2.58-5.447 6.021-5.782 1.768-.143 3.345.813 4.779 2.915a6.603 6.603 0 011.099 5.352c-.908 4.158-5.496 7.455-7.12 8.507l4.205 23.32c.191 1.386 4.301 8.267 7.12 9.557a.954.954 0 01.478 1.29.958.958 0 01-.86.478z" fill="#000"/><path d="M293.06 78.379c.971-.113 1.616-1.415 1.444-2.91-.173-1.494-1.101-2.614-2.07-2.502-.97.112-1.617 1.415-1.443 2.91.173 1.494 1.099 2.614 2.069 2.502zm19.662-1.584c.972-.112 1.617-1.414 1.445-2.909-.173-1.494-1.101-2.615-2.07-2.502-.97.112-1.617 1.414-1.443 2.909.173 1.494 1.099 2.615 2.068 2.502zm-25.866-4.801a1.198 1.198 0 01-1.052-.67 1.165 1.165 0 01-.13-.442 1.136 1.136 0 01.055-.459 1.14 1.14 0 01.601-.676l8.172-4.396a1.14 1.14 0 01.918-.12 1.149 1.149 0 01.706.598 1.191 1.191 0 01-.477 1.625l-8.22 4.396-.573.144zm31.014-2.964h-.287l-7.741-1.72c-.31-.07-.581-.26-.752-.528a1.204 1.204 0 01.372-1.656 1.2 1.2 0 01.905-.157l7.742 1.768a1.156 1.156 0 01.75.499 1.14 1.14 0 01.158.887 1.195 1.195 0 01-1.147.908zm-16.296 21.218c-1.672 0-2.772-.525-3.297-1.529-1.147-2.294 1.529-5.973 2.102-6.69a.955.955 0 111.482 1.147c-1.052 1.433-2.294 3.823-1.864 4.683.43.86.86.526 1.864.478a.955.955 0 011.003.908 1.048 1.048 0 01-.955 1.003h-.335zm19.737-24.61a6.836 6.836 0 01-4.779-2.055c-7.885-8.124-35.315-33.069-57.154-13.38-3.345 2.962-3.345 3.822-3.297 4.014.382 1.051 6.26 1.433 12.472 1.768 8.698.526 21.791 1.29 38.66 4.253a.961.961 0 01.707.357.953.953 0 01-.638 1.548.954.954 0 01-.403-.041c-16.726-2.915-29.772-3.68-38.421-4.206-8.65-.525-13.381-.764-14.193-3.01-.813-2.246 1.051-3.584 3.823-6.117 8.41-7.55 18.302-9.7 29.58-6.356a.913.913 0 01.191-.573c4.731-5.448 9.223-7.36 14.193-9.08 10.609-3.727 19.354-3.488 26.045.67 9.605 6.068 12.329 18.732 13.141 25.709a5.126 5.126 0 01-1.147 3.775 4.97 4.97 0 01-3.536 1.816l-14.814.86-.43.048zm-31.875-22.651a52.837 52.837 0 014.684 1.863c11.134 5.114 20.357 13.859 23.798 17.395a4.63 4.63 0 003.68 1.434l14.814-.86a3.25 3.25 0 002.198-1.1 3.015 3.015 0 00.717-2.341c-.765-6.69-3.345-18.685-12.234-24.324-6.165-3.87-14.384-4.014-24.419-.526-4.684 1.673-8.889 3.441-13.238 8.459z" fill="#000"/><path d="M256.749 55.698s-9.318.526 23.655 10.131l1.72-7.407-25.375-2.724zm84.632 21.792l-.239-17.73s-.477 7.073-23.559 4.349l11.66 14.718c.717.86 2.103-.047 2.199-1.147.286-2.676 5.017-9.557 9.557-.095a.198.198 0 00.239.143.195.195 0 00.143-.239z" fill="#000"/><path d="M326.185 59.187h6.977c.871 0 1.577-.706 1.577-1.578v-1.911c0-.871-.706-1.577-1.577-1.577h-6.977c-.872 0-1.577.706-1.577 1.577v1.911c0 .871.705 1.578 1.577 1.578z" fill="#3474C9"/><path d="M302.817 149.457a1.04 1.04 0 01-.813-.43c-3.345-4.588-7.98-10.465-9.892-11.756-.956-.669-2.963.191-5.304 2.39a1.388 1.388 0 01-1.721.143 1.39 1.39 0 01-.525-1.625c3.727-10.083 8.888-22.316 12.186-23.177a1.72 1.72 0 011.433.287c2.485 1.72 3.823 11.947 5.161 27.908.239 2.437.383 4.396.478 5.065a.951.951 0 01-.573 1.099l-.43.096zm-11.469-14.336a3.304 3.304 0 011.863.573c2.007 1.386 5.878 6.26 8.411 9.605-.048-.621-.096-1.242-.191-1.959-.335-4.348-.908-10.895-1.721-16.391-1.146-8.315-2.246-9.796-2.58-10.035-1.482.573-5.113 6.977-10.083 20.023 1.624-1.195 3.058-1.816 4.301-1.816z" fill="#000"/><path d="M247.67 158.919a.88.88 0 01-.441-.109.883.883 0 01-.324-.321 1.005 1.005 0 01.239-1.338c.511-.709.959-1.461 1.338-2.246 2.007-3.728 5.735-10.705 12.568-12.998 8.65-2.868 26.236-10.322 26.379-10.37a.957.957 0 011.15 1.191.961.961 0 01-.385.529c-.191.096-17.825 7.551-26.522 10.466-6.117 2.054-9.51 8.314-11.517 12.09-.956 1.768-1.386 2.58-1.959 2.963a.97.97 0 01-.526.143zm132.418 36.94a1.005 1.005 0 01-.954-.908.97.97 0 01.053-.37.966.966 0 01.491-.543.981.981 0 01.362-.091c13.478-.812 24.085-9.557 29.2-13.763l.285-.191c1.434-1.194 2.342-2.389 2.391-2.819-6.069-8.267-26.428-35.363-36.368-41.336-11.945-7.169-30.344-12.521-30.535-12.569a1.014 1.014 0 01-.542-.477 1.008 1.008 0 01-.079-.717.916.916 0 01.778-.701.905.905 0 01.369.032c.191.048 18.828 5.495 30.966 12.807 10.036 5.973 29.197 31.301 36.988 41.909 1.289 1.721-1.529 4.301-2.773 5.353l-.239.191c-5.303 4.348-16.248 13.38-30.344 14.193h-.049z" fill="#000"/><path d="M360.305 176.505a.865.865 0 01-.764-.43 55.016 55.016 0 01-7.073-14.575c-3.25-10.848-1.242-19.593 5.878-25.28a.96.96 0 01.699-.204.96.96 0 01.639.347.903.903 0 01.224.701.91.91 0 01-.367.638c-15.675 12.615 1.338 37.035 1.529 37.274a.947.947 0 01.022 1.068.96.96 0 01-.261.27 1.02 1.02 0 01-.526.191zm-94.38-15.006l-70.868 22.078-3.49 36.988 26.092 8.65 2.772-39.33 72.159-22.747-26.665-5.639z" fill="#000"/><path d="M268.218 342.137l7.408-60.069a3.252 3.252 0 00-2.724-3.538l-27.622-3.965a3.153 3.153 0 00-3.584 2.772l-6.738 56.149a3.155 3.155 0 002.294 3.442l26.905 7.885a3.205 3.205 0 004.061-2.676zM144.64 308.302l4.636-30.392c.143-.86-.622-1.626-1.673-1.768l-17.395-2.007c-1.099-.143-2.102.478-2.246 1.386l-4.253 28.432a1.675 1.675 0 001.434 1.722l16.965 4.014c1.146.287 2.389-.382 2.532-1.387z" fill="#E9EFF6"/><path d="M264.204 291.673h-.191l-16.533-3.393a.91.91 0 01-.718-1.147.862.862 0 011.099-.718l16.534 3.393a.913.913 0 01.616.414.934.934 0 01.128.357.875.875 0 01-.027.377.953.953 0 01-.908.717zm0 10.705h-.239l-16.534-4.397a.973.973 0 01-.704-.817.99.99 0 01.035-.379.956.956 0 011.147-.669l16.534 4.398a.964.964 0 01.34.167.974.974 0 01.362.649.922.922 0 01-.033.377.862.862 0 01-.908.671zm0 11.754h-.286l-16.535-5.4a.949.949 0 01-.556-.468.962.962 0 01-.065-.725 1.003 1.003 0 011.194-.623l16.535 5.4a.955.955 0 01.621 1.196 1.008 1.008 0 01-.36.446c-.163.11-.352.171-.548.174zm-130.746-11.756h-.144a.952.952 0 01-.764-1.099l3.01-17.059a.967.967 0 111.912.287l-3.059 17.108a.904.904 0 01-.955.763z" fill="#000"/><path d="M142.49 293.631a.946.946 0 01-.813-.524l-5.352-9.607c-2.198 2.391-4.301 5.019-4.348 5.784a.919.919 0 01-.299.677.919.919 0 01-.328.191.91.91 0 01-.377.04 1.01 1.01 0 01-.649-.327 1 1 0 01-.259-.677c.143-2.055 4.444-6.596 5.782-7.934l.86-.908 6.643 11.853a.954.954 0 01-.382 1.29.816.816 0 01-.478.142zm161.808-190.576a1.005 1.005 0 01-.956-.764 1.003 1.003 0 01.765-1.147c.048 0 7.837-1.768 9.701-5.687a.956.956 0 011.242-.478 1 1 0 01.478 1.29c-2.294 4.779-10.656 6.643-11.039 6.739l-.191.047z" fill="#000"/><path d="M328.288 113.378s6.594-7.742 9.748-5.926c3.154 1.816 6.165 12.09 2.629 15.961-3.537 3.871-13.907 16.965-16.344 14.049-2.437-2.914-10.131-8.888-6.738-14.622 3.393-5.735 10.705-9.462 10.705-9.462z" fill="#E9EFF6"/><path d="M306.066 170.149a.906.906 0 01-.908-.86l-4.062-29.867 7.551-10.466a12.263 12.263 0 012.485-2.724l17.729-14.575.573-.478c6.213-5.447 6.977-5.591 7.694-5.4 1.912.574 3.823 2.772 4.97 5.687.813 2.103 2.342 7.503-1.003 12.998v.144c-1.912 2.389-11.422 13.858-16.344 13.858l-.621-.096c-4.874-1.051-7.598-9.27-7.742-9.605a1.048 1.048 0 01.622-1.242.96.96 0 01.726.064.96.96 0 01.468.557c.717 2.103 3.202 7.694 6.356 8.363 3.154.669 10.322-7.264 15.005-13.046a12.96 12.96 0 001.703-5.546 12.963 12.963 0 00-.89-5.732c-1.004-2.533-2.437-4.062-3.536-4.492-1.1-.43-1.912 1.29-6.117 4.922l-.574.526-17.825 14.575a11.174 11.174 0 00-2.15 2.341l-7.073 9.845 3.919 29.15a.968.968 0 01-.174.721.962.962 0 01-.638.378h-.144zm-65.945-61.359h-146.9a.957.957 0 01-.956-.956.91.91 0 01.956-.956h146.9a.916.916 0 01.69.265.9.9 0 01.264.691.955.955 0 01-.954.956z" fill="#000"/><path d="M240.121 108.79h-146.9a.957.957 0 01-.956-.956.91.91 0 01.956-.956h146.9a.916.916 0 01.69.265.9.9 0 01.264.691.955.955 0 01-.954.956z" fill="#000"/><path d="M366.757 222.62s-16.774 12.855-21.122 9.366c-4.349-3.488-10.752-7.55-15.197-8.076-4.444-.525-14.957-5.687-18.207-3.966-3.249 1.72-2.533 8.315 2.915 9.127 5.448.813 14.002 3.871 12.712 5.4-1.29 1.529-21.648 5.114-28.386 1.96-4.635-2.199-4.54 1.577-1.577 4.539 4.731 4.684 17.968 2.103 17.968 2.103s-23.559-4.205-26.522 1.386c-.908 1.672 2.676 2.963 4.492 6.117 1.816 3.154 1.864 5.639 4.97 8.41 3.106 2.772 8.936 3.059 9.653 6.356.956 4.636 6.547 4.827 7.933 5.352 4.396 1.816 11.039 2.39 35.936-18.016 4.11-3.345 9.844-4.014 15.053-8.697l12.329-4.158-12.95-17.203z" fill="#E9EFF6"/><path d="M320.881 257.123c-18.208 0-30.346-6.356-32.353-10.563-.478-1.098-.382-2.101.335-2.866 3.202-3.249 10.417-2.198 10.752-2.15a.954.954 0 01.812 1.051.952.952 0 01-1.099.811c-1.816-.237-7.025-.476-9.127 1.674-.048.048-.144.143.048.669 1.624 3.441 15.292 11.181 37.943 9.128a.901.901 0 01.687.213.91.91 0 01.317.647c.012.124 0 .252-.035.373a.936.936 0 01-.176.331.946.946 0 01-.65.347c-2.58.239-5.065.335-7.454.335z" fill="#000"/><path d="M318.443 265.677c-8.793 0-15.435-1.864-19.879-5.593-4.445-3.726-4.731-7.501-4.779-7.645-.016-.256.063-.51.221-.713.159-.202.387-.34.639-.386a.94.94 0 01.705.21.97.97 0 01.346.649c0 .049.478 3.49 4.206 6.548 3.727 3.059 10.752 6.068 25.04 4.731a.956.956 0 01.943.503.976.976 0 01.109.356.964.964 0 01-.861 1.053 82.719 82.719 0 01-6.69.287z" fill="#000"/><path d="M319.256 271.937c-4.014 0-7.933-1.386-11.374-5.161l-.286-.335a.956.956 0 01-.287-1.242 1.003 1.003 0 011.29-.384c.276.181.518.407.717.669 5.639 6.214 13.667 6.069 23.846-.381 9.127-5.734 11.517-7.98 13.619-9.94 2.103-1.959 3.25-3.058 7.885-5.925 10.227-6.308 29.82-11.469 30.632-11.661a.947.947 0 01.813-.004.945.945 0 01.523.623.959.959 0 01-.148.802.983.983 0 01-.31.277.966.966 0 01-.4.118c-.191.048-20.166 5.305-30.106 11.469-4.492 2.772-5.926 4.11-7.598 5.687-1.673 1.577-4.588 4.349-13.859 10.179-4.348 2.772-9.701 5.209-14.957 5.209zm-11.135-27.191c-3.966 0-8.41-.669-10.895-3.107-2.485-2.437-2.82-4.492-1.816-5.925.478-.669 1.72-1.625 4.731-.191 6.212 2.867 23.989-.144 26.761-1.577-1.004-1.052-6.117-3.202-10.944-3.919-3.87-.573-6.403-3.584-6.833-6.212-.335-1.912.382-3.489 1.863-4.301 2.438-1.338 7.885.286 13.142 1.816a48.202 48.202 0 006.404 1.624c5.734.669 13.476 6.547 15.674 8.316.526.382 3.058 1.29 13.811-5.066 5.973-3.488 11.516-7.503 11.564-7.503a.955.955 0 011.338.191 1.004 1.004 0 01-.239 1.339c-.047.047-5.639 4.061-11.66 7.646-11.421 6.69-14.575 5.973-16.009 4.874-4.348-3.489-10.513-7.407-14.671-7.885-1.672-.191-4.109-.908-6.738-1.673-4.205-1.242-9.939-2.962-11.708-2.007-1.768.956-1.003 1.673-.908 2.294.335 1.912 2.294 4.205 5.257 4.683 3.919.574 11.708 2.963 12.616 5.353.098.264.123.55.071.827a1.573 1.573 0 01-.358.75c-1.816 2.102-22.508 5.304-29.246 2.15-1.433-.717-2.246-.621-2.389-.43-.143.191.095 1.911 1.625 3.488 4.348 4.252 16.964 1.816 17.108 1.816a.956.956 0 01.334 1.864c-2.6.493-5.239.748-7.885.765z" fill="#000"/><path d="M385.537 239.441a1.01 1.01 0 01-.908-.669.945.945 0 01.083-.739.956.956 0 01.586-.456c24.85-7.263 38.708-17.108 41.241-29.341 3.296-15.961-14.241-30.68-14.432-30.823a.968.968 0 01.536-1.705.97.97 0 01.705.223c.766.622 18.591 15.627 15.053 32.687-2.676 12.951-17.012 23.32-42.577 30.775l-.287.048z" fill="#000"/><path d="M372.157 220.422a.957.957 0 01-.954-1.147c.044-.247.181-.47.38-.621.192-.144 19.259-13.285 33.786-20.549a.967.967 0 011.06.133.98.98 0 01.329.659.94.94 0 01-.046.372.977.977 0 01-.186.327 1.006 1.006 0 01-.297.229c-14.384 7.168-33.355 20.262-33.547 20.405a.91.91 0 01-.525.192z" fill="#000"/><path d="M393.612 205.751a1.27 1.27 0 01-.572-.144l-16.2-11.469-.43-.191-1.625-1.29c-.478-.382-1.195-.956-.621-1.673.573-.716 1.193-.334 2.15.383l1.195.908.143.095 16.487 11.66a.968.968 0 01.398.619.958.958 0 01-.159.72 1.028 1.028 0 01-.341.276.992.992 0 01-.425.106z" fill="#000"/><path d="M373.256 218.797h-.048a1.003 1.003 0 01-.908-1.004l1.481-26.044a1.006 1.006 0 011.004-.908.943.943 0 01.662.314.949.949 0 01.246.69l-1.483 26.044a.956.956 0 01-.954.908z" fill="#000"/></svg>