<svg width="547" height="547" fill="none" xmlns="http://www.w3.org/2000/svg"><path d="M224.235 68.47H86.208c-1.197 0-2.167.97-2.167 2.167v81.842c0 1.197.97 2.167 2.167 2.167h138.027c1.198 0 2.168-.97 2.168-2.167V70.637c0-1.197-.97-2.166-2.168-2.166z" fill="#000"/><path d="M224.235 155.757H86.265a3.361 3.361 0 01-3.364-3.306V70.637a3.363 3.363 0 013.364-3.307h137.97a3.309 3.309 0 013.308 3.307v81.814a3.306 3.306 0 01-3.308 3.306zM86.265 69.611a1.084 1.084 0 00-1.084 1.026v81.814a1.083 1.083 0 001.084 1.026h137.97c.274 0 .535-.108.726-.301.193-.192.301-.453.301-.725V70.637a1.019 1.019 0 00-.301-.726 1.027 1.027 0 00-.726-.3H86.265z" fill="#000"/><path d="M196.072 343.388h-22.805v55.045h22.805v-55.045zm112.999-44.87h-24.516v99.955h24.516v-99.955zM176.459 423.604l-37.4 80.732a1.7 1.7 0 00-.166.851 1.698 1.698 0 00.916 1.406c.261.137.552.202.846.193h6.956c.315.006.626-.076.898-.239.272-.16.493-.393.641-.672l42.247-82.271h-14.938zm89.454 0l37.116 80.276a1.711 1.711 0 01-.107 1.674 1.695 1.695 0 01-.644.583 1.697 1.697 0 01-.846.193h-7.126a1.708 1.708 0 01-1.54-.911l-41.961-81.815h15.108zm-49.031 0l4.219 81.986a1.764 1.764 0 001.767 1.652 1.757 1.757 0 001.174-.496c.317-.304.509-.718.536-1.156l4.104-82.155-11.8.169z" fill="#3474C9"/><path d="M393.109 424.746H51.6V222.292h331.017l1.369 36.716 9.123 165.738zm-339.228-2.281h336.775l-8.951-163.344-1.31-34.548H53.881v197.892zm281.758-275.146h-.171c-17.958-.114-20.126-24.002-20.126-24.23a1.164 1.164 0 01.253-.84c.097-.116.214-.213.347-.284a1.135 1.135 0 01.871-.087 1.154 1.154 0 01.68.555c.072.133.115.278.13.428 0 .228 1.996 22.064 17.845 22.178h.171c16.877 0 17.617-21.209 17.674-22.121 0-.147.031-.293.087-.428a1.1 1.1 0 01.25-.359 1.074 1.074 0 01.804-.296 1.198 1.198 0 011.14 1.197c0 .228-.855 24.287-19.955 24.287zm11.004-45.838c-3.251.855-10.719 2.509-14.025.342a2.333 2.333 0 00-2.11-.228c-2.337 1.026-7.698 2.908-12.201.969a1.032 1.032 0 00-1.24.323 1.012 1.012 0 00-.184.419c-.628 3.078-3.82 13.227-9.352 9.92-6.67-3.991-11.289-13.626-2.507-18.871.968-.57 5.302-1.654 5.358-2.737.343-3.934.456-13.854 9.75-10.775 1.254.398 3.021 0 3.192-1.255.684-5.074 10.091-16.078 20.639-4.447 0 0 23.945-2.166 16.021 14.253-.399.856.057 1.996 1.025 2.053 8.438.513 11.859 17.389 1.71 17.104-.855-.057-5.131-2.167-5.586-1.426-.456.742-1.596 1.825-7.868-4.903a2.56 2.56 0 00-2.622-.741z" fill="#000"/><path d="M309.699 115.05a5.467 5.467 0 01-2.794-.855c-4.675-2.851-7.867-7.754-7.867-12.258 0-2.451.968-5.872 5.415-8.552.589-.293 1.198-.54 1.825-.741.855-.342 2.565-.912 3.021-1.311a2.32 2.32 0 01.057-.627c.228-3.08.571-8.324 3.935-10.548 1.881-1.254 4.275-1.368 7.184-.399a1.875 1.875 0 001.482-.114c.228-.114.228-.171.228-.228.456-3.193 3.876-8.495 9.122-10.091 3.134-.97 7.868-.912 13.112 4.618 2.567-.171 13.171-.4 16.991 5.017 1.88 2.793 1.767 6.442-.399 10.946a.562.562 0 00.056.457c5.587.284 9.236 6.613 9.008 12.086-.17 4.561-3.022 7.355-7.412 7.241a8.14 8.14 0 01-2.338-.684 16.21 16.21 0 00-2.507-.855 2.462 2.462 0 01-1.597 1.026c-1.426.114-3.136-1.197-7.811-6.215a1.488 1.488 0 00-1.483-.399c-4.047 1.084-11.344 2.566-14.936.228a1.204 1.204 0 00-1.027-.171c-2.793 1.255-8.21 3.022-12.998 1.027-.228 1.083-2.11 9.065-6.386 11.003-.6.241-1.236.376-1.881.399zm7.24-33.638a4.332 4.332 0 00-2.337.628c-2.453 1.653-2.794 6.157-2.965 8.837-.057.285-.057.57-.115.855-.113 1.368-1.823 2.11-4.445 3.022l-1.426.57c-2.852 1.71-4.276 3.934-4.334 6.613 0 3.706 2.795 7.925 6.784 10.319a2.629 2.629 0 002.566.286c2.624-1.198 4.562-6.842 5.074-9.407a2.448 2.448 0 011.142-1.54 2.163 2.163 0 011.881-.057c4.161 1.768 9.235-.114 11.288-.969a3.359 3.359 0 013.193.285c1.995 1.368 6.898 1.14 13.055-.513a3.82 3.82 0 013.764 1.083c3.192 3.364 5.13 5.188 5.873 5.416l.227-.285c.741-1.254 2.566-.627 4.96.285l1.654.57h.228c3.991 0 4.731-3.135 4.789-5.074.17-4.333-2.736-9.521-6.842-9.749a2.17 2.17 0 01-1.882-1.14 2.802 2.802 0 01-.113-2.509c1.767-3.706 1.938-6.613.57-8.666-2.908-4.162-12.201-4.333-15.507-3.99h-.571l-.342-.457c-3.649-3.99-7.469-5.53-11.117-4.39-3.649 1.14-7.184 5.644-7.584 8.267a2.343 2.343 0 01-1.196 1.825 4.22 4.22 0 01-3.422.342 9.46 9.46 0 00-2.85-.457z" fill="#000"/><path d="M317.395 130.615a7.415 7.415 0 01-4.619-1.597c-1.881-1.482-3.021-3.934-3.364-7.183-.569-4.789.742-6.215 2.338-7.412 1.597-1.197 1.482-1.14 1.254-3.478a1.154 1.154 0 01.598-1.124 1.155 1.155 0 011.269.123 1.165 1.165 0 01.414.773c.285 3.364-.798 4.447-2.166 5.53-1.369 1.084-1.881 1.426-1.482 5.359.797 7.013 5.473 6.785 5.986 6.728.149-.016.301-.002.445.042a1.142 1.142 0 01.809.984 1.197 1.197 0 01-1.026 1.255h-.456zm37.116-1.939h-.172a1.136 1.136 0 01-1.024-1.254 1.063 1.063 0 01.375-.772 1.093 1.093 0 01.821-.254c.228 0 4.447.171 5.246-7.013.455-3.991-.628-5.131-1.711-6.328-1.083-1.198-2.394-2.566-2.053-6.044a1.146 1.146 0 012.281.228c-.284 2.452.456 3.193 1.426 4.276.968 1.083 2.85 3.079 2.338 8.153-.971 8.552-6.444 9.008-7.527 9.008zm-18.7 7.868c-1.311 0-2.225-.114-2.281-.114a1.253 1.253 0 01-1.027-1.311c.055-.287.213-.544.445-.722a1.19 1.19 0 01.809-.247c.115 0 6.101.741 9.179-1.711a4.256 4.256 0 001.156-1.362 4.292 4.292 0 00.498-1.717 1.145 1.145 0 012.281.229 6.577 6.577 0 01-.797 2.579 6.597 6.597 0 01-1.769 2.039c-2.452 1.995-6.1 2.337-8.494 2.337zm14.936 25.371c-4.675 0-7.125-12.999-7.753-16.99a1.142 1.142 0 01.912-1.312 1.135 1.135 0 01.861.209 1.152 1.152 0 01.45.761c1.313 8.039 3.878 15.051 5.53 15.051a1.145 1.145 0 011.142 1.141 1.144 1.144 0 01-1.142 1.14zm-27.138 1.368a1.201 1.201 0 01-.912-.456 1.141 1.141 0 01.228-1.596c2.622-1.996 3.364-11.175 3.193-16.477a1.14 1.14 0 011.139-1.14 1.07 1.07 0 01.804.296 1.085 1.085 0 01.338.787c.056 1.539.284 14.994-4.105 18.358a1.09 1.09 0 01-.685.228zm3.935-46.294c.692 0 1.254-.843 1.254-1.882s-.562-1.881-1.254-1.881c-.693 0-1.255.842-1.255 1.881 0 1.039.562 1.882 1.255 1.882zm16.021 0c.691 0 1.253-.843 1.253-1.882s-.562-1.881-1.253-1.881c-.693 0-1.254.842-1.254 1.881 0 1.039.561 1.882 1.254 1.882zm-19.555-4.732a1.427 1.427 0 01-.343-2.794l6.271-1.654a1.43 1.43 0 011.768.97 1.482 1.482 0 01-1.026 1.767l-6.272 1.653-.398.058zm23.66-.343h-.115l-6.5-.627a1.425 1.425 0 01-1.311-1.539 1.486 1.486 0 011.597-1.312l6.498.628c.369.043.706.227.939.515.235.287.349.655.316 1.024a1.428 1.428 0 01-1.424 1.311zm-13.342 14.71h-.113c-1.825-.114-2.565-.97-2.795-1.654-.74-1.881 1.426-4.276 2.053-4.96a1.2 1.2 0 011.654-.057 1.08 1.08 0 01.259 1.234 1.06 1.06 0 01-.259.362c-.97 1.027-1.654 2.281-1.597 2.623.277.093.565.15.855.171a1.14 1.14 0 01.758 1.967 1.143 1.143 0 01-.815.314zm-25.37-16.99h-.399c-1.142-.456-5.758-3.649-5.589-7.697a1.203 1.203 0 011.198-1.083 1.08 1.08 0 011.083 1.197c-.113 2.68 3.536 5.188 4.105 5.416a1.14 1.14 0 01.76 1.037 1.15 1.15 0 01-.075.446 1.201 1.201 0 01-1.083.684zm54.447-4.276a1.139 1.139 0 01-.97-.513 1.137 1.137 0 01-.164-.871c.031-.148.093-.289.178-.414.088-.125.199-.231.329-.312.968-.684 1.367-3.021 1.425-3.99a1.144 1.144 0 011.14-1.14 1.195 1.195 0 011.14 1.196c0 .457-.228 4.333-2.451 5.816-.18.14-.399.22-.627.228z" fill="#000"/><path d="M258.901 177.764c-.177.088-.33.217-.449.375a1.252 1.252 0 00.106 1.621c4.731 4.903 21.951 22.748 24.686 23.489 2.737.742 8.838-7.582 11.232-11.004a1.1 1.1 0 01.415-.343 1.085 1.085 0 011.41.458c3.933 7.297 20.924 38.255 24.515 40.308 3.591 2.053-.569 8.439 3.192 10.433 0 0-1.995 18.073-.397 21.266 1.595 3.193 8.779 0 8.779 0s19.555-3.477 27.423-4.675c7.868-1.196 18.644-9.007 23.603-9.294 4.961-.284 12.486-.284 13.398-3.192.913-2.907-12.827-20.695-13.967-29.134l2.051.684a4.562 4.562 0 003.251-.341c6.214-3.479 28.506-16.021 26.967-17.788-1.54-1.767-22.691-31.472-30.559-38.484-7.867-7.013-27.025-1.711-30.103-4.048l-16.134 11.63a3.025 3.025 0 01-3.82-.171c-4.334-3.933-15.564-13.569-24.118-16.134-12.486-3.763-26.68 4.048-34.092 11.402a73.23 73.23 0 01-17.389 12.942z" fill="#000"/><path d="M326.574 266.932c-1.652 0-3.25-.512-3.99-2.051-1.541-3.136-.228-16.99.228-21.209-1.825-1.426-1.597-3.763-1.426-5.645.172-1.882.228-3.592-1.139-4.391-3.536-2.051-17.105-26.281-24.916-40.592-8.836 12.258-11.516 11.516-12.372 11.288-2.68-.74-15.223-13.342-25.256-23.774a2.525 2.525 0 01-.628-2.052c.057-.38.206-.74.434-1.048.23-.308.531-.556.877-.72a72.35 72.35 0 0017.105-12.714c8.267-8.267 22.804-15.393 35.234-11.687 8.723 2.622 20.068 12.314 24.515 16.362a2.002 2.002 0 002.396.114l16.818-12.143.684.513c.799.627 4.504.399 7.755.228 7.24-.399 17.102-.912 22.461 3.876 5.361 4.79 20.07 24.403 26.798 33.467 1.938 2.624 3.477 4.675 3.876 5.131a1.312 1.312 0 01.285 1.198c-.113.855-.569 3.307-27.595 18.3a5.58 5.58 0 01-4.161.456h-.171c1.254 4.334 4.959 10.548 8.039 15.679 4.104 6.841 6.043 10.264 5.472 12.087-1.025 3.308-7.241 3.648-12.656 3.876l-1.769.115c-2.107.115-5.699 1.938-9.519 3.82-3.82 1.882-9.636 4.847-13.969 5.474-7.412 1.139-25.543 4.332-27.253 4.618a17.054 17.054 0 01-6.157 1.424zm-31.185-76.226h.113a2.163 2.163 0 011.825 1.141c12.257 22.577 21.95 38.597 24.059 39.795 2.11 1.198 2.453 4.332 2.281 6.556-.171 2.223-.171 3.364.912 3.933l.627.343v.799c-.74 6.841-1.597 18.472-.512 20.582 1.083 2.109 5.358.341 7.297-.515h.284c.172-.056 19.67-3.533 27.423-4.675 3.991-.627 8.953-3.077 13.341-5.244 4.391-2.168 7.812-3.934 10.377-4.106l1.769-.113c3.477-.171 10.033-.456 10.604-2.281.569-1.825-2.852-6.157-5.302-10.261-3.763-6.329-8.098-13.57-8.725-18.36l-.228-1.766 3.764 1.139c.393.131.809.179 1.221.141a2.983 2.983 0 001.173-.369c16.362-9.122 24.801-14.709 26.283-16.477l-3.592-4.788c-6.67-9.009-20.582-27.823-26.511-33.125-4.617-4.162-13.967-3.649-20.81-3.307-4.276.228-6.898.342-8.436-.228l-15.566 11.232a4.273 4.273 0 01-5.303-.285c-4.332-3.934-15.336-13.398-23.603-15.907-11.572-3.421-25.2 3.364-33.009 11.118a73.906 73.906 0 01-17.676 13.17.061.061 0 00-.04.016.057.057 0 00-.016.041.06.06 0 00-.04.016.057.057 0 000 .081.056.056 0 00.04.017c12.827 13.341 22.52 22.691 24.23 23.203.799.115 4.219-2.565 9.977-10.546a2.286 2.286 0 011.769-.97z" fill="#000"/><path d="M310.382 154.56a1.084 1.084 0 01-1.083-1.026 1.122 1.122 0 01.042-.446 1.139 1.139 0 01.985-.808l16.534-.97c.151-.016.304 0 .448.048a1.092 1.092 0 01.657.593c.06.139.093.29.091.443a1.072 1.072 0 01-.254.82 1.086 1.086 0 01-.773.377l-16.534.969h-.113zm47.321 5.302a.622.622 0 01-.455-.114l-11.061-5.302a1.142 1.142 0 01-.571-1.482 1.198 1.198 0 011.539-.57l11.061 5.302c.136.067.257.159.355.273.101.114.175.246.223.389a1.124 1.124 0 01-.064.877 1.081 1.081 0 01-1.027.627zm-7.583 72.292a1.132 1.132 0 01-1.139-.797c-2.11-7.811-14.481-54.448-14.596-54.904a1.094 1.094 0 01.397-1.185c.121-.088.257-.151.401-.183a1.092 1.092 0 01.857.101 1.094 1.094 0 01.513.697c.113.456 12.484 47.092 14.652 54.847.042.146.057.299.038.45a1.118 1.118 0 01-.432.773c-.12.093-.259.163-.405.201h-.286zm8.096-5.302a1.145 1.145 0 01-.751-.27 1.147 1.147 0 01-.389-.698c-.684-5.873-7.64-24.118-12.2-36.205-3.192-8.323-4.675-12.371-4.79-13.397a1.092 1.092 0 01.212-.838 1.073 1.073 0 01.758-.416 1.134 1.134 0 011.125.597c.071.133.115.279.128.429.115.855 2.338 6.671 4.675 12.829 4.905 12.942 11.631 30.615 12.373 36.716a1.089 1.089 0 01-.211.837 1.089 1.089 0 01-.759.416h-.171zm24.629-7.638a1.143 1.143 0 01-1.083-.742c-2.222-6.557-2.678-33.01-2.678-34.151a1.077 1.077 0 01.654-1.052 1.07 1.07 0 01.429-.088h.056c.297.013.58.139.792.348.209.212.335.495.348.792 0 .228.456 27.195 2.565 33.41a1.14 1.14 0 01-.74 1.425l-.343.058z" fill="#000"/><path d="M339.745 183.181a1.483 1.483 0 100-2.966 1.483 1.483 0 000 2.966zm7.868 24.971a1.882 1.882 0 100-3.76 1.882 1.882 0 000 3.76z" fill="#000"/><path d="M393.964 250.285s16.534 20.81 17.103 60.376c.57 39.569 4.162 69.9 4.162 69.9l43.502 47.377a8.661 8.661 0 01-.4 12.2c-8.951 8.324-18.7 25.828-19.898 25.428-1.196-.399-16.306-27.366-16.306-27.366l5.018 29.932a5.304 5.304 0 01-3.016 5.672 5.308 5.308 0 01-2.23.485H396.13a5.299 5.299 0 01-5.246-4.846l-5.415-72.007-15.28-12.428a7.008 7.008 0 01-1.881-2.396c-5.018-11.744-39.226-91.79-36.773-110.091.169-1.426.797-3.08 1.938-3.991l1.995-.97 58.496-17.275z" fill="#3474C9"/><path d="M377.315 286.546h-.341c-.286-.058-6.841-2.224-10.263-5.018-.285-.228-1.197-.911-5.416-14.424a1.132 1.132 0 01.394-1.224c.119-.094.257-.162.405-.202a1.074 1.074 0 01.877.055c.133.069.252.167.346.286.095.117.163.253.201.401 1.825 5.871 4.048 12.428 4.675 13.398 3.193 2.509 9.408 4.56 9.465 4.56a1.197 1.197 0 01.74 1.426 1.146 1.146 0 01-1.083.742zm-36.886-.343a1.263 1.263 0 01-1.085-.684 1.2 1.2 0 01.571-1.539c4.846-2.109 4.961-8.781 4.961-8.837 0-.303.119-.593.334-.806a1.136 1.136 0 011.945.806c0 .343-.056 8.21-6.27 10.947l-.456.113zm55.816-14.88h-.171c-13.342-1.539-12.144-17.674-12.144-17.845a1.14 1.14 0 011.683-.897 1.141 1.141 0 01.596 1.125c-.056.571-1.024 14.025 10.149 15.336a1.251 1.251 0 011.026 1.311 1.138 1.138 0 01-1.139.97zm17.786 109.407a1.185 1.185 0 01-.74-.284c-.514-.399-13.513-10.718-17.218-14.197-3.706-3.477-22.179-65.906-24.232-73.033a1.201 1.201 0 01.742-1.426c.146-.042.299-.057.451-.038a1.134 1.134 0 01.773.432c.093.12.162.257.202.405 7.753 26.511 21.038 69.5 23.603 72.007 3.649 3.422 16.99 13.968 17.103 14.083.234.19.383.463.416.762.031.299-.057.598-.244.833a1.196 1.196 0 01-.856.456zm8.096 58.611a1.18 1.18 0 01-.554-.166 1.17 1.17 0 01-.414-.404c-5.131-8.096-35.577-39.966-35.861-40.252a1.197 1.197 0 010-1.654c.235-.191.532-.292.837-.283.304.011.594.132.816.341 1.255 1.311 30.844 32.326 36.146 40.65a1.198 1.198 0 01-.343 1.597 1.31 1.31 0 01-.627.171zm19.672 54.903l-.514-.113a1.2 1.2 0 01-.512-1.541c0-.057 2.85-5.815 11.516-2.166.27.124.479.35.585.625.106.277.1.585-.014.857a1.093 1.093 0 01-1.045.729 1.085 1.085 0 01-.438-.102c-6.557-2.793-8.495.912-8.553 1.027a1.19 1.19 0 01-1.025.684z" fill="#000"/><path d="M452.003 510.322c-1.182 0-2.358-.192-3.477-.571-4.335-1.426-8.78-5.873-8.267-12.315.147-1.57.592-3.099 1.311-4.503.455-.799.855-1.598 1.197-2.281 4.161-7.981 5.188-9.921-4.334-17.617a6.217 6.217 0 01-1.024-8.608l18.928-24.801a8.373 8.373 0 015.643-3.251 8.61 8.61 0 016.329 1.653l17.504 11.746c3.477 2.166 5.472 4.845 5.814 7.981.628 5.302-3.592 9.977-4.219 10.604a3.593 3.593 0 01-3.42 1.37c-.4-.115-.799-.343-2.453-1.37-.684-.399-1.767-1.083-2.279-1.31a3.08 3.08 0 00-1.769 1.197l-7.297 10.605a3.077 3.077 0 00.628 4.217 4.732 4.732 0 01.855 6.444l-11.289 15.963a9.696 9.696 0 01-8.381 4.847zm11.118-71.723h-.798a6.385 6.385 0 00-4.163 2.394l-18.985 24.801a3.99 3.99 0 00.684 5.474c10.49 8.495 9.522 11.631 4.903 20.41-.341.74-.74 1.482-1.139 2.281a9.283 9.283 0 00-1.083 3.649 9.746 9.746 0 006.726 9.977c2.851.97 6.843.571 9.18-3.364h.057l11.345-15.963a2.45 2.45 0 00-.4-3.308 5.365 5.365 0 01-2.055-3.446 5.367 5.367 0 01.916-3.907l7.297-10.605a5.696 5.696 0 013.479-2.224c.683-.114 1.254.227 3.705 1.768l1.653.968c.223.028.447 0 .657-.078.208-.08.394-.21.541-.377l.113-.172c.059-.056 4.163-4.276 3.592-8.836-.284-2.396-1.881-4.505-4.731-6.272l-17.674-11.859a6.277 6.277 0 00-3.82-1.311z" fill="#000"/><path d="M444.706 487.687a1.15 1.15 0 01-.799-.341 1.083 1.083 0 010-1.597c.228-.228 5.302-5.075 9.864-3.308a1.145 1.145 0 01.627 1.483 1.136 1.136 0 01-1.482.627c-2.624-1.025-6.216 1.71-7.412 2.851-.23.177-.508.278-.798.285zm4.902 21.209c3.592.855 7.469-.171 9.865-4.048l11.288-16.02a3.54 3.54 0 00-.627-4.846 4.277 4.277 0 01-.914-5.758l7.356-10.605a4.178 4.178 0 011.188-1.163 4.201 4.201 0 011.548-.605c.456-.057 4.391 2.624 4.847 2.737a2.512 2.512 0 002.394-.969s7.64-7.754 1.825-14.311l-4.79 6.843a2.656 2.656 0 01-.746.755 2.649 2.649 0 01-.979.408c-.35.068-.711.066-1.061-.005a2.693 2.693 0 01-.977-.418l-.628-.455a2.652 2.652 0 00-2.023-.449 2.661 2.661 0 00-.983.392 2.66 2.66 0 00-.755.74l-12.942 18.7a2.496 2.496 0 00-.456 1.997c.064.354.197.693.392.997.197.303.45.566.748.77a2.677 2.677 0 01.683 3.763l-14.595 21.151.342.399zm-167.675-284.21l-2.223-.113c-2.053 0-35.177-.287-42.817-.855-3.592-.287-5.189-2.225-5.873-3.764-1.938-4.276.343-10.433 3.308-14.368 4.675-6.214 24.686-22.633 25.541-23.317a1.138 1.138 0 011.896.52c.042.153.051.314.028.471a1.158 1.158 0 01-.498.776c-.172.172-20.639 16.934-25.144 22.92-3.021 4.047-4.389 9.178-3.078 12.028.684 1.483 1.995 2.281 3.991 2.453 7.64.57 42.36.855 42.703.855h.113c2.565.284 8.039.115 8.61-2.11a1.193 1.193 0 011.367-.855 1.193 1.193 0 01.855 1.426c-.855 3.42-5.814 3.933-8.779 3.933z" fill="#000"/><path d="M273.838 208.38a1.021 1.021 0 01-.743-.341 1.138 1.138 0 01-.382-.775 1.133 1.133 0 01.269-.822l5.93-6.499a1.151 1.151 0 011.71 1.539l-5.929 6.5a1.22 1.22 0 01-.387.287 1.172 1.172 0 01-.468.111z" fill="#000"/><path d="M277.714 210.261l-.513-.113c-10.662-5.701-21.495-8.154-23.147-7.867a1.2 1.2 0 01-1.426-.571 1.141 1.141 0 01.513-1.539c2.053-.97 14.595 2.279 25.143 7.981a1.196 1.196 0 01.456 1.54 1.251 1.251 0 01-1.026.569zm114.254 13.684a1.08 1.08 0 01-1.083-.798l-1.596-4.675a1.255 1.255 0 01.74-1.483 1.144 1.144 0 011.426.741l1.596 4.733a1.13 1.13 0 01-.077.864 1.133 1.133 0 01-.664.56l-.342.058z" fill="#000"/><path d="M334.328 235.29a13.717 13.717 0 01-6.101-1.653c-1.825-1.083-1.938-2.394-1.881-3.135a3.49 3.49 0 01.703-1.617 3.492 3.492 0 011.406-1.063c1.083-.343 3.08-.284 5.587-.171 2.509.114 5.929.227 7.982-.285 3.25-.798 7.297 2.053 10.262 4.104a20.709 20.709 0 002.396 1.539c.684.059 4.903-.569 12.771-2.166a4.874 4.874 0 001.254-.512c15.564-9.465 29.589-8.723 30.216-8.666.148.007.292.043.425.109a1.086 1.086 0 01.602 1.089 1.084 1.084 0 01-.748 1.035 1.074 1.074 0 01-.45.048c-.113 0-13.969-.743-28.849 8.323a5.425 5.425 0 01-1.994.799c-7.925 1.653-12.543 2.337-13.685 2.166-1.139-.172-1.595-.742-3.249-1.882-1.654-1.139-6.157-4.332-8.38-3.763-2.224.57-5.701.457-8.61.343-1.994-.115-4.104-.172-4.846.056a1.09 1.09 0 00-.512.799c-.057.342.455.683.74.855a11.39 11.39 0 004.961 1.367 1.14 1.14 0 010 2.281zm-26.511 18.7l-.4-.113a4.106 4.106 0 01-2.224-2.053 3.89 3.89 0 01.058-2.908c1.196-2.85 8.495-5.415 9.978-5.928a1.193 1.193 0 011.424.741c.052.142.076.293.067.445a1.068 1.068 0 01-.407.778 1.087 1.087 0 01-.401.203c-3.707 1.254-7.982 3.364-8.551 4.616a1.586 1.586 0 00-.058 1.142c.195.383.517.685.913.855a1.142 1.142 0 01.627 1.482 1.08 1.08 0 01-1.026.74zm19.156 1.311a1.14 1.14 0 01-1.123-.598 1.15 1.15 0 01-.132-.426 1.15 1.15 0 011.027-1.255c.343-.058 8.21-1.597 11.744-.913.294.056.554.224.724.47.171.244.239.547.189.842a1.14 1.14 0 01-1.312.912c-2.622-.514-8.78.512-10.889.912l-.228.056z" fill="#000"/><path d="M338.888 259.863h-.397l-9.122-3.42a1.162 1.162 0 01-.407-.237 1.161 1.161 0 01-.275-.381 1.119 1.119 0 01-.099-.462c0-.158.033-.315.095-.459.115-.281.334-.503.613-.62.277-.119.591-.12.87-.007l9.122 3.362a1.256 1.256 0 01.685 1.482 1.193 1.193 0 01-1.085.742z" fill="#000"/><path d="M341.454 262.713a8.08 8.08 0 01-6.043-2.965 1.103 1.103 0 01-.251-.397 1.098 1.098 0 01-.07-.465 1.17 1.17 0 01.124-.456c.073-.14.176-.264.298-.365.124-.098.268-.171.421-.213a1.164 1.164 0 01.91.14c.135.086.248.199.335.332a5.785 5.785 0 002.252 1.654 5.772 5.772 0 002.766.398c2.68-.398 10.32-7.013 13.17-9.52l1.71-1.426c.111-.128.248-.23.403-.299.155-.067.323-.1.491-.097a1.137 1.137 0 011.083.896 1.144 1.144 0 01-.219.951 1.14 1.14 0 01-.388.316l-1.598 1.369c-5.701 5.016-11.403 9.635-14.368 10.034l-1.026.113zm-59.634-47.718s3.021 3.533 4.503 7.069c1.483 3.535.343 8.666 1.711 8.666 2.622-.058 16.877-2.624 18.986-3.935 2.108-1.311 6.442-18.3-1.94-18.643-8.38-.341-19.783 3.707-23.26 6.843z" fill="#000"/><path d="M305.935 229.647a3.419 3.419 0 01-1.88-.514 2.157 2.157 0 01-.913-2.051 1.147 1.147 0 012.007-.662c.199.231.296.53.274.831.366.146.775.146 1.139 0 .856-1.083 3.193-9.179 2.737-14.309-.171-1.368-.627-2.394-1.367-2.965a3.824 3.824 0 00-2.681-.684l-.798.113-.398-.684c-.457-.855-3.592-.855-6.101-.399l-.514.115-.456-.343c-2.508-1.995-7.069.115-7.125.172l-.399.171-.456-.171c-2.794-.97-9.978 1.938-13.856 4.047a1.138 1.138 0 01-1.712-1.322 1.126 1.126 0 01.629-.672c1.083-.628 10.433-5.531 15.223-4.334 1.368-.513 5.645-2.052 8.723 0 1.654-.228 5.758-.741 7.583 1.026h.057a6.216 6.216 0 013.648 1.14c1.311 1.026 2.053 2.567 2.225 4.562.512 5.187-1.769 15.336-3.707 16.477a4.339 4.339 0 01-1.882.456z" fill="#000"/><path d="M300.177 230.786a3.603 3.603 0 01-1.997-.512c-.683-.514-1.482-1.482-1.424-3.535a1.18 1.18 0 01.389-.773c.22-.201.51-.312.808-.31a1.127 1.127 0 01.791.373c.1.112.177.241.228.383.051.141.073.29.064.44 0 .457 0 1.254.399 1.482.399.23 1.541.115 2.281-.113 4.79-5.587 3.249-14.709 3.249-14.767a1.197 1.197 0 01.914-1.368c.3-.034.601.048.846.226.242.181.408.445.465.743.056.399 1.766 10.491-3.992 16.876l-.113.172-.23.113a7.815 7.815 0 01-2.678.57z" fill="#000"/><path d="M294.589 230.387a2.877 2.877 0 01-.968-.171c-1.198-.456-1.37-1.995-1.083-3.249a1.076 1.076 0 01.472-.708 1.078 1.078 0 01.839-.147c.293.054.554.224.723.468.172.246.239.549.188.843a3.016 3.016 0 00-.056.683c.57-.113 1.994-.911 4.846-5.871 2.053-3.535.172-9.122-.343-9.977a1.14 1.14 0 01-.056-1.426 1.075 1.075 0 011.198-.439c.146.042.282.113.397.211.914.684 3.592 7.868.799 12.771-1.938 3.364-4.389 7.012-6.956 7.012z" fill="#000"/><path d="M288.889 231.926a3.258 3.258 0 01-1.43-.213 3.28 3.28 0 01-1.194-.813c-.912-1.196-.855-2.965.23-5.472a1.09 1.09 0 01.231-.387 1.087 1.087 0 011.249-.24 1.136 1.136 0 01.628 1.482c-.797 1.882-.797 2.85-.569 3.134.228.287.855.343 1.595.172.742-.172 2.166-1.424 3.764-4.617l1.367-2.68c2.11-3.877-2.108-8.61-2.735-9.122a1.208 1.208 0 01-.545-.609 1.201 1.201 0 01-.026-.817 1.142 1.142 0 011.483-.628c.798.287 3.021 2.794 4.048 5.531 1.026 2.736.855 4.733-.228 6.728l-1.37 2.622c-1.595 3.192-2.622 5.302-5.302 5.816a4.628 4.628 0 01-1.196.113zm40.022 10.264l-11.232 4.161 1.769 7.926 10.774-5.303-1.311-6.784z" fill="#000"/><path d="M310.269 261.289a2.278 2.278 0 01-2.109-1.254c-1.142-2.225.569-6.386 4.219-10.492 5.244-5.871 19.44-8.38 20.067-8.495a1.146 1.146 0 011.311.914c.053.301-.014.611-.184.864-.169.255-.43.436-.727.503-.172 0-14.025 2.453-18.757 7.755-4.733 5.302-4.219 7.525-3.878 7.924h.115c.911-.115 4.39-2.224 7.184-3.935 2.793-1.71 7.696-4.731 10.489-5.758.135-.054.279-.082.425-.08.144.002.288.033.421.093a1.088 1.088 0 01.58.615 1.143 1.143 0 01-.627 1.482c-2.565.97-6.557 3.421-10.092 5.589-3.534 2.166-6.726 4.104-8.096 4.275h-.341zm23.089 7.868s23.718-3.479 27.653-1.71l32.953-17.162-10.548.113s-20.695 8.782-22.121 9.066l-28.905 4.903v5.53l.968-.74z" fill="#000"/><path d="M361.067 267.674a5.585 5.585 0 01-3.672-1.429 5.584 5.584 0 01-.873-7.323 5.584 5.584 0 013.234-2.251l5.016-1.198a5.588 5.588 0 016.672 4.106 5.774 5.774 0 01-.627 4.219 5.58 5.58 0 01-3.479 2.507l-4.96 1.198-1.311.171zm5.016-10.033h-.796l-4.962 1.196a3.296 3.296 0 00-2.04 1.458 3.297 3.297 0 00-.452 1.198c-.07.425-.057.859.042 1.278a3.277 3.277 0 001.458 2.041c.365.228.772.381 1.196.45a3.26 3.26 0 001.279-.04l5.017-1.196a3.31 3.31 0 001.995-1.482c.244-.354.407-.759.474-1.182.07-.425.044-.859-.075-1.271a3.184 3.184 0 00-3.136-2.45zm15.566-29.934s3.877-4.217 11.631-1.595c7.753 2.622 6.386 17.959 6.386 17.959h-12.087l-5.93-16.364z" fill="#000"/><path d="M369.677 248.004h-3.935a1.098 1.098 0 01-.443-.091 1.1 1.1 0 01-.366-.264 1.093 1.093 0 01-.226-.392c-.048-.144-.064-.297-.048-.451 0-.145.029-.291.088-.426.058-.137.142-.259.25-.359.105-.103.233-.181.37-.232.138-.051.286-.073.432-.066.456 0 44.414 1.255 51.256-11.8 4.731-9.066-4.22-19.783-4.276-19.898a1.09 1.09 0 01-.296-.824 1.093 1.093 0 01.409-.774c.228-.193.523-.289.822-.269.299.022.576.16.775.384.399.513 10.034 11.972 4.56 22.464-6.27 11.915-38.027 12.998-49.372 12.998zM417.91 90.933a4.846 4.846 0 100-9.692 4.847 4.847 0 100 9.692zm19.954 0a4.846 4.846 0 10.001-9.692 4.846 4.846 0 00-.001 9.692zm18.245 0a4.845 4.845 0 004.844-4.846 4.845 4.845 0 10-9.691 0 4.846 4.846 0 004.847 4.846zm-118.76 308.669H110.21v-1.14c.57-57.411 1.026-144.072.114-148.405a1.083 1.083 0 01.285-1.369c.244-.19.553-.279.861-.248.308.033.592.182.792.419.456.571 1.14 1.483.741 75.827-.171 32.955-.456 66.08-.513 72.637h224.859a1.14 1.14 0 110 2.279z" fill="#000"/><path d="M119.674 269.556h-8.323a1.14 1.14 0 110-2.281h8.323a1.14 1.14 0 110 2.281zm-1.482 30.102h-6.215a1.136 1.136 0 01-.806-1.946c.214-.213.504-.334.806-.334h6.215a1.144 1.144 0 011.14 1.14 1.136 1.136 0 01-1.14 1.14zm0 28.221h-6.215a1.136 1.136 0 01-.806-1.945 1.14 1.14 0 01.806-.334h6.215a1.14 1.14 0 010 2.279zm1.482 26.056h-7.697a1.079 1.079 0 01-1.14-1.14c0-.303.12-.593.334-.806.213-.215.503-.335.806-.335h7.697c.302 0 .592.12.806.335.214.213.334.503.334.806a1.091 1.091 0 01-.316.824 1.06 1.06 0 01-.379.246 1.056 1.056 0 01-.445.07zm-1.483 26.112h-6.67a1.14 1.14 0 110-2.281h6.67c.302 0 .593.12.806.335a1.136 1.136 0 010 1.612 1.142 1.142 0 01-.806.334zm39.91 19.555h-21.095v-50.456h21.095v50.456zm-18.814-2.281h16.534v-45.895h-16.534v45.895zm89.795-70.581h-18.13v71.706h18.13V326.74z" fill="#000"/><path d="M230.221 399.602h-20.41V325.6h20.41v74.002zm-18.129-2.279h15.85v-69.444h-15.85v69.444zm57.585 2.279h-26.57v-87.743h26.57v87.743zm-24.289-2.279h22.008V314.14h-22.008v83.183zm-107.242-36.319a1.146 1.146 0 01-.855-.341 1.199 1.199 0 01.114-1.654l10.833-9.578a1.151 1.151 0 111.539 1.71l-10.889 9.578a.95.95 0 01-.742.285zm0 14.482a1.36 1.36 0 01-.798-.286 1.192 1.192 0 010-1.652l18.814-18.643c.102-.112.225-.199.362-.259a1.061 1.061 0 01.872 0c.138.06.261.147.362.259a1.191 1.191 0 010 1.653L138.944 375.2a1.076 1.076 0 01-.798.286zm0 15.621a1.203 1.203 0 01-1.089-.779 1.078 1.078 0 01.348-1.216l18.815-16.477c.105-.108.231-.192.371-.246a1.063 1.063 0 01.872.031 1.1 1.1 0 01.353.271 1.202 1.202 0 01-.114 1.654l-18.815 16.477a1.186 1.186 0 01-.741.285zm10.832 8.495a1.195 1.195 0 01-.798-1.939l7.982-8.494a1.09 1.09 0 011.224-.303c.14.055.267.138.372.246a1.14 1.14 0 01.057 1.595l-7.982 8.554a1.13 1.13 0 01-.855.341z" fill="#000"/><path d="M244.248 325.142c-.319 0-.625-.122-.857-.341a1.195 1.195 0 01-.273-.849c.02-.308.16-.597.388-.804l12.087-11.004c.113-.1.243-.179.387-.23a1.15 1.15 0 011.152 1.94l-12.144 11.004a1.069 1.069 0 01-.74.284zm.912 19.386a1.145 1.145 0 01-1.039-.706 1.141 1.141 0 01.24-1.232l23.375-21.209c.106-.108.232-.192.372-.247a1.083 1.083 0 011.226.303 1.202 1.202 0 01-.059 1.654L245.9 344.242a.879.879 0 01-.335.235.862.862 0 01-.405.051zm-.913 28.278a1.253 1.253 0 01-.469-.111 1.24 1.24 0 01-.387-.288 1.255 1.255 0 01.115-1.654l24.287-20.239a1.14 1.14 0 011.82.503 1.092 1.092 0 01-.093.873 1.095 1.095 0 01-.301.334l-24.23 20.297a1.191 1.191 0 01-.742.285zm.913 19.898a1.134 1.134 0 01-.912-.399 1.148 1.148 0 01-.244-.833c.033-.3.183-.575.416-.764l22.633-18.13c.115-.111.25-.197.399-.251.148-.057.307-.081.465-.07a1.145 1.145 0 011.06 1.313 1.168 1.168 0 01-.168.439 1.125 1.125 0 01-.33.336l-22.635 18.131a.967.967 0 01-.684.228zm-.912-35.861a1.041 1.041 0 01-.913-.456 1.139 1.139 0 01.23-1.597l23.544-17.561a1.146 1.146 0 011.598.23 1.074 1.074 0 01.085 1.273 1.08 1.08 0 01-.313.322l-23.547 17.561a1.097 1.097 0 01-.684.228zm15.736 42.019a1.026 1.026 0 01-.855-.4 1.138 1.138 0 01.056-1.597l8.552-7.753a1.134 1.134 0 01.846-.419c.164-.006.326.023.476.087.151.062.286.155.397.276.111.118.195.26.246.415a1.132 1.132 0 01-.426 1.295l-8.552 7.811a1.22 1.22 0 01-.74.285zm112.43 113.17l19.612-.512a3.478 3.478 0 003.477-3.423 4.278 4.278 0 014.106-4.16l12.884-.456a4.054 4.054 0 011.628.261c.52.195.994.494 1.395.878.399.285.512 5.075.74 5.474a2.392 2.392 0 002.224 1.368s13.854 1.938 12.715-11.232l-1.142-21.094a7.285 7.285 0 00-2.075-5.272 7.292 7.292 0 00-5.222-2.197l-31.243-.343a5.08 5.08 0 00-3.53 1.426 5.078 5.078 0 00-1.544 3.477c-.571 14.312-4.048 13.628-14.995 15.508a11.606 11.606 0 00-3.991 1.541c-8.78 5.471-5.359 19.783 4.961 18.756z" fill="#000"/><path d="M371.444 513.23c-4.447 0-7.983-2.565-9.465-6.956a12.068 12.068 0 01-.562-5.1c.183-1.719.733-3.38 1.616-4.87a12.01 12.01 0 013.497-3.752 12.006 12.006 0 014.743-1.957l2.508-.399c8.951-1.426 11.061-1.767 11.517-14.025a6.15 6.15 0 011.883-4.263 6.148 6.148 0 014.331-1.723h.058l31.184.341a8.49 8.49 0 018.439 8.61l1.141 21.037c.341 4.048-.627 7.241-2.908 9.465-3.876 3.705-10.149 3.078-11.004 2.965a3.538 3.538 0 01-3.136-1.938c-.228-.343-.284-.799-.456-2.737-.056-.799-.171-2.11-.228-2.68a3.016 3.016 0 00-2.053-.628l-12.884.456a3.195 3.195 0 00-3.023 3.08 4.67 4.67 0 01-4.616 4.503l-19.556.513-1.026.058zm20.068-40.764a3.93 3.93 0 00-3.933 3.761c-.515 13.513-3.649 14.653-13.398 16.25l-2.509.399a10.828 10.828 0 00-3.592 1.311c-4.447 2.794-5.131 7.868-3.991 11.345 1.139 3.479 3.706 5.816 8.21 5.417h.113l19.555-.456a2.452 2.452 0 002.396-2.337 5.414 5.414 0 015.188-5.302l12.885-.456a5.464 5.464 0 013.877 1.424c.455.456.57 1.083.798 3.935.057.74.172 1.653.228 1.994a1.197 1.197 0 001.083.627h.172c.056 0 5.986.799 9.235-2.394 1.768-1.653 2.509-4.219 2.224-7.583l-1.141-21.209a6.209 6.209 0 00-1.738-4.483 6.192 6.192 0 00-4.42-1.902l-31.242-.341z" fill="#000"/><path d="M385.868 495.555a1.089 1.089 0 01-1.083-.855c-.798-2.737-5.131-3.99-6.728-4.276a1.104 1.104 0 01-.425-.15 1.124 1.124 0 01-.335-.302 1.137 1.137 0 01-.208-.859c.055-.294.222-.554.469-.724.244-.171.547-.239.842-.188.284.057 7.24 1.196 8.551 5.871.044.146.057.299.04.451a1.123 1.123 0 01-.433.775c-.121.093-.258.16-.405.2l-.285.057zm-22.578 11.06a8.613 8.613 0 009.122 5.417l19.614-.456a3.602 3.602 0 002.427-1.05 3.603 3.603 0 001.05-2.429 4.267 4.267 0 011.231-2.891 4.255 4.255 0 012.873-1.269l12.886-.456a4.087 4.087 0 013.021 1.139c.399.285.514 5.075.742 5.474a2.393 2.393 0 002.223 1.367s10.776 1.483 12.542-7.125l-8.38.284a2.692 2.692 0 01-1.048-.164 2.713 2.713 0 01-.901-.56 2.667 2.667 0 01-.844-1.898v-.742a2.74 2.74 0 00-2.795-2.622l-22.748.855a2.8 2.8 0 00-1.882.856 2.731 2.731 0 00-.74 1.994 2.688 2.688 0 01-2.622 2.795l-25.656.969a3.575 3.575 0 00-.115.512zm15.28-7.525a1.142 1.142 0 01-1.14-.855c-1.71-6.956-5.758-6.272-5.929-6.214a1.196 1.196 0 01-1.368-.913 1.137 1.137 0 01.912-1.311c.056-.057 6.385-1.255 8.61 7.867.041.146.052.301.031.451-.02.151-.073.295-.154.424a1.091 1.091 0 01-.734.495l-.228.056zM354.283 82.382h-.456c-5.76-2.509-8.553-1.483-8.61-1.483a1.072 1.072 0 01-.88.017 1.085 1.085 0 01-.602-.644 1.14 1.14 0 01.627-1.482c.343-.114 3.705-1.369 10.377 1.482a1.08 1.08 0 01.609.617c.053.14.076.288.071.437a1.12 1.12 0 01-.11.428 1.02 1.02 0 01-1.026.627z" fill="#000"/><path d="M103.255 140.193a1.538 1.538 0 01-1.027-.456 1.43 1.43 0 01.057-1.996l29.704-27.936a2.567 2.567 0 013.535.057l24.06 25.086 36.145-45.04a1.43 1.43 0 011.997-.229c.151.112.279.254.374.417a1.382 1.382 0 01-.146 1.579l-36.432 45.382a2.292 2.292 0 01-.804.672c-.317.158-.666.24-1.02.24a2.281 2.281 0 01-1.882-.741L133.7 112.142l-29.419 27.652a1.376 1.376 0 01-1.026.399z" fill="#E5E9EF"/><path d="M199.15 106.042a1.429 1.429 0 01-1.426-1.426V91.618a1.133 1.133 0 00-.512-.97 1.194 1.194 0 00-1.083-.17l-13.455 4.503a1.426 1.426 0 01-1.825-.912 1.428 1.428 0 01.912-1.767l13.512-4.504a3.822 3.822 0 013.649.57 3.998 3.998 0 011.654 3.25v12.998c0 .379-.15.741-.418 1.008a1.423 1.423 0 01-1.008.418z" fill="#E5E9EF"/><path d="M390.087 141.447a30.34 30.34 0 01-4.505-.342 1.766 1.766 0 01-1.539-1.368 1.88 1.88 0 01.627-1.996c4.391-3.364 8.838-13.113 10.548-17.161a2.744 2.744 0 00-.683-3.079 62.171 62.171 0 01-15.508-21.664 38.887 38.887 0 01-3.079-18.13c1.139-15.793 7.639-27.595 19.327-35.064 11.687-7.468 26.112-8.837 36.146-8.723 16.705.228 47.379 12.543 59.351 34.208 6.785 12.315 6.101 25.77-1.995 38.883-9.465 15.451-23.034 24.288-40.195 26.226-13.854 1.539-26.284-1.995-30.959-3.592a2.789 2.789 0 00-2.906.741c-8.553 9.237-18.303 11.061-24.63 11.061zm-3.307-2.452c5.246.571 16.59.343 26.283-10.148a4.9 4.9 0 015.246-1.368c10.718 3.649 47.378 12.828 68.528-21.665 7.755-12.543 8.382-24.915 1.94-36.603-11.518-20.923-41.222-32.782-57.356-33.01h-1.311c-18.814 0-49.316 5.644-51.882 41.676a36.436 36.436 0 002.907 17.047 58.851 58.851 0 0014.938 20.867 5.076 5.076 0 011.255 5.701c-2.11 4.961-6.216 13.57-10.548 17.503zm-253.081-21.379a5.075 5.075 0 10-.001-10.15 5.075 5.075 0 00.001 10.15zm25.884 23.033a5.074 5.074 0 100-10.149 5.074 5.074 0 000 10.149zM133.642 99.77a1.141 1.141 0 01-1.14-1.14v-6.385a1.14 1.14 0 112.28 0v6.385a1.14 1.14 0 01-1.14 1.14zm-.114-16.134a1.141 1.141 0 01-1.141-1.14v-6.272a1.14 1.14 0 112.281 0v6.272a1.14 1.14 0 01-1.14 1.14zm25.884 39.396a1.14 1.14 0 01-1.141-1.14v-6.386a1.14 1.14 0 012.281 0v6.386a1.14 1.14 0 01-1.14 1.14zm-.114-16.135a1.09 1.09 0 01-1.071-.694 1.094 1.094 0 01-.07-.446v-6.271a1.094 1.094 0 01.316-.825 1.093 1.093 0 01.825-.316 1.14 1.14 0 011.14 1.14v6.272a1.138 1.138 0 01-1.14 1.14zm.114-17.161a1.14 1.14 0 01-1.141-1.14v-6.443a1.14 1.14 0 012.281 0v6.443a1.14 1.14 0 01-1.14 1.14zm-25.656 59.408a1.14 1.14 0 01-1.14-1.141v-6.385a1.14 1.14 0 012.28 0v6.385a1.14 1.14 0 01-1.14 1.141zm-.17-16.135a1.14 1.14 0 01-1.141-1.14v-6.271a1.14 1.14 0 112.281 0v6.271a1.138 1.138 0 01-1.14 1.14zM88.145 70.18a1.196 1.196 0 01-1.083-.74 1.14 1.14 0 01.627-1.483l69.157-28.107 65.223 28.107a1.144 1.144 0 01.571 1.54 1.097 1.097 0 01-.618.608 1.08 1.08 0 01-.865-.038L156.846 42.3 88.545 70.067l-.4.114z" fill="#000"/><path d="M157.417 44.582a4.675 4.675 0 100-9.35 4.675 4.675 0 000 9.35z" fill="#3474C9"/><path d="M362.437 205.074a4.17 4.17 0 01-3.935-2.908l-3.021-10.548a1.141 1.141 0 01.74-1.424c.146-.044.299-.057.45-.04a1.128 1.128 0 01.775.432c.093.12.161.259.201.406l3.021 10.546a1.823 1.823 0 002.11 1.198l7.583-1.482a1.828 1.828 0 001.426-2.11l-2.053-10.548a1.024 1.024 0 01.439-1.163c.126-.078.268-.129.416-.148a1.2 1.2 0 011.367.912l2.054 10.492a4.097 4.097 0 01-.617 3.046 4.093 4.093 0 01-2.576 1.742l-7.64 1.54-.74.057z" fill="#000"/></svg>