<svg width="539" height="337" fill="none" xmlns="http://www.w3.org/2000/svg"><path d="M324.711 480.836c-27.178 0-85.821-9.006-88.841-9.43l-35.653-4.079c-3.761-.37-92.125-9.801-99.542-15.627-1.377-1.06-4.98-3.868-7.205-102.775-1.112-48.63-1.324-97.21-1.324-97.686-.477-13.828 2.649-25.218 9.165-33.747 5.191-6.833 12.449-11.867 22.144-15.416.132-.05.273-.073.414-.07a1.068 1.068 0 01.963.706c.088.268.071.557-.046.814a1.116 1.116 0 01-.59.563c-20.925 7.628-30.726 23.045-29.931 47.096 0 .53.212 48.792 1.272 97.264 2.012 88.1 5.191 100.389 6.409 101.609 5.828 4.502 73.055 12.449 98.483 15.151l35.707 4.078c24.474 3.761 67.702 9.483 88.787 9.483 5.457 0 9.483-.37 11.284-1.272 5.668-2.806 12.82-14.621 19.707-32.369a43.093 43.093 0 002.808-12.925l12.608-210.42a12.186 12.186 0 00-11.019-12.927l-11.389-1.112c-10.437-1.06-23.364-2.384-38.092-3.602a1.08 1.08 0 01-.716-.387 1.015 1.015 0 01-.196-.366 1.031 1.031 0 01-.04-.414 1.076 1.076 0 01.385-.718 1.073 1.073 0 01.779-.236 2603.817 2603.817 0 0138.092 3.603l11.336 1.114a14.244 14.244 0 019.582 4.924 14.258 14.258 0 013.398 10.227l-12.609 210.42a44.988 44.988 0 01-2.967 13.561c-4.132 10.701-12.343 29.349-20.767 33.535-2.013 1.006-6.463 1.43-12.396 1.43z" fill="#000"/><path d="M329.108 187.879l.318 20.766a10.645 10.645 0 009.589 10.383l44.34 1.166c9.589.9 13.563-8.847 5.404-13.985a11.015 11.015 0 00-3.708-1.378c-10.171-1.749-14.887-6.357-15.416-19.706a4.628 4.628 0 00-.391-1.757 4.63 4.63 0 00-1.033-1.472 4.598 4.598 0 00-3.292-1.275l-29.03.265a6.891 6.891 0 00-6.298 4.348 6.914 6.914 0 00-.483 2.645z" fill="#000"/><path d="M329.108 187.879l.318 20.766a10.645 10.645 0 009.589 10.383l44.34 1.166c9.589.9 13.563-8.847 5.404-13.985a11.015 11.015 0 00-3.708-1.378c-10.171-1.749-14.887-6.357-15.416-19.706a4.628 4.628 0 00-.391-1.757 4.63 4.63 0 00-1.033-1.472 4.598 4.598 0 00-3.292-1.275l-29.03.265a6.891 6.891 0 00-6.298 4.348 6.914 6.914 0 00-.483 2.645z" fill="#000"/><path d="M330.538 213.573c1.536 3.761 4.45 6.515 8.105 6.939h.106l44.394 1.43h.106c5.244.584 8.794-2.702 9.588-6.833l-.318-.318s-39.361 2.067-60.921-2.49a.966.966 0 00-.494.043.957.957 0 00-.566 1.229zm12.343-9.006a4.98 4.98 0 100-9.961 4.98 4.98 0 000 9.961z" fill="#3474C9"/><path d="M371.7 207.639h-.316a1.006 1.006 0 01-.69-1.324 9.748 9.748 0 019.43-6.887 1 1 0 01.732.313 1.008 1.008 0 01.275.745 1.058 1.058 0 01-1.06 1.06c-.265 0-5.615-.052-7.363 5.405a1.069 1.069 0 01-1.008.688zm6.622 3.496h-.264a1.05 1.05 0 01-.65-.505 1.076 1.076 0 01-.13-.4 1.116 1.116 0 01.038-.419c1.536-5.616 7.259-7.259 10.013-7.365a1.006 1.006 0 011.112 1.008 1.058 1.058 0 01-1.006 1.113c-.318 0-6.569.318-8.107 5.826a.95.95 0 01-1.006.742z" fill="#fff"/><path d="M387.117 155.14l17.747 10.753a10.597 10.597 0 0013.88-2.542l24.58-36.977c5.88-7.629-.264-16.158-8.953-11.973a10.012 10.012 0 00-3.126 2.384c-6.887 7.681-13.295 9.218-24.898 2.543a4.71 4.71 0 00-3.511-.467 4.71 4.71 0 00-2.846 2.109l-15.151 24.687a6.825 6.825 0 00-.85 5.219 6.816 6.816 0 003.128 4.264z" fill="#000"/><path d="M387.117 155.14l17.747 10.753a10.597 10.597 0 0013.88-2.542l24.58-36.977c5.88-7.629-.264-16.158-8.953-11.973a10.012 10.012 0 00-3.126 2.384c-6.887 7.681-13.295 9.218-24.898 2.543a4.71 4.71 0 00-3.511-.467 4.71 4.71 0 00-2.846 2.109l-15.151 24.687a6.825 6.825 0 00-.85 5.219 6.816 6.816 0 003.128 4.264z" fill="#000"/><path d="M409.631 167.589c4.026.688 7.841-.266 10.173-3.178h.106l24.792-36.872h.052c3.284-4.132 2.384-8.9-.688-11.76l-.424.105s-19.23 34.435-34.541 50.275a.898.898 0 00.128 1.231.907.907 0 00.402.199zm-5.297-12.873a4.98 4.98 0 10-.003-9.96 4.98 4.98 0 00.003 9.96z" fill="#3474C9"/><path d="M425.576 130.082a1.001 1.001 0 01-.794-.371 9.802 9.802 0 01-.794-11.655 1.005 1.005 0 011.43-.264 1.05 1.05 0 01.476 1.094c-.025.139-.08.271-.158.389a7.575 7.575 0 00.688 9.059 1.114 1.114 0 01-.158 1.536.957.957 0 01-.69.212zm6.517-3.708a1.003 1.003 0 01-.794-.371c-3.92-4.291-2.278-10.013-.848-12.397a1.061 1.061 0 011.43-.423 1.113 1.113 0 01.372 1.483c-.16.212-3.232 5.721.636 9.906a1.172 1.172 0 01-.054 1.537 1.277 1.277 0 01-.742.265z" fill="#fff"/><path d="M179.186 145.657a.582.582 0 01-.424-.106 1.074 1.074 0 01-.346-.243 1.076 1.076 0 01-.288-.777c.007-.143.043-.282.104-.41.901-1.802-.053-5.722-1.112-9.271a14.4 14.4 0 00-.901-2.066l-8.635-15.787c-2.225.265-6.357.424-8.635-1.589a4.719 4.719 0 01-1.642-3.603c0-1.96.583-3.39 1.854-4.185 2.437-1.589 6.251.053 6.675.265a1.055 1.055 0 01.803 1.009 1.057 1.057 0 01-1.224 1.066 1.054 1.054 0 01-.427-.168c-.847-.371-3.443-1.218-4.715-.424-1.271.795-.847 1.219-.847 2.384a2.703 2.703 0 00.9 2.066c1.802 1.59 5.828 1.219 6.993 1.06a2.17 2.17 0 012.172 1.112l8.582 15.787c.43.796.784 1.629 1.06 2.49 1.43 4.768 2.172 8.423 1.006 10.807a1 1 0 01-.953.583zm-4.572-45.148c.572-.354.586-1.368.031-2.263-.555-.895-1.469-1.333-2.041-.979-.572.355-.586 1.368-.031 2.263.556.895 1.469 1.334 2.041.979zm6.797-11.589a1.271 1.271 0 01-1.272-.9 1.35 1.35 0 01-.07-.52 1.313 1.313 0 01.918-1.175l6.093-2.067a1.337 1.337 0 011.694.848 1.341 1.341 0 01-.848 1.695l-6.091 2.066-.424.053zm-15.416 8.953a1.166 1.166 0 01-.795-.318 1.278 1.278 0 01-.511-.881 1.26 1.26 0 01.299-.974l3.973-5.085a1.342 1.342 0 012.224.156 1.35 1.35 0 01-.105 1.486l-4.026 5.086a1.372 1.372 0 01-1.059.53zm19.813 5.774a1.018 1.018 0 01-.507-.093.993.993 0 01-.393-.331 1.107 1.107 0 01.264-1.483c.478-.371.636-.583.636-.689 0-.106-1.324-1.06-2.754-1.377a1.059 1.059 0 01-.742-1.272.997.997 0 01.853-.825c.14-.019.282-.009.419.03.9.213 3.92 1.113 4.29 3.073.158.689 0 1.749-1.484 2.808a1.057 1.057 0 01-.582.159zm20.183 28.554l-.37-.106c-5.138-1.96-11.549-11.231-11.815-11.655a1.06 1.06 0 011.749-1.165c.054.053 6.304 9.112 10.808 10.86a1.052 1.052 0 01.608.555 1.065 1.065 0 01.027.822 1.107 1.107 0 01-1.007.689z" fill="#000"/><path d="M182.576 122.242c-.272 0-.534-.104-.73-.292a1.057 1.057 0 01-.329-.715 1.004 1.004 0 011.007-1.113c9.428-.423 15.203-3.019 17.163-7.734 4.98-11.867-14.249-33.534-14.461-33.746a.992.992 0 01-.3-.753 1 1 0 01.352-.73 1.115 1.115 0 011.536.106c.796.9 20.344 22.886 14.833 35.918-2.33 5.562-8.741 8.582-19.071 9.059zm-8.529 21.561l-25.746 17.43a2.747 2.747 0 00-.984 3.234c.146.379.373.722.666 1.002 5.086 4.663 15.575 15.841 14.939 28.503a1.794 1.794 0 001.654 1.848c.305.026.611-.028.889-.154 7.946-3.867 30.356-13.455 43.865-6.569 16.633 8.477 65.954 21.456 65.954 21.456s-11.231-41.163 13.297-67.333c.179-.18.314-.4.395-.641a1.654 1.654 0 00-.207-1.45 1.657 1.657 0 00-.558-.505l-31.415-17.535s-1.43-19.654-19.866-24.475c-.954-.265-3.55.636-4.292 1.272l-26.54 26.276a4.19 4.19 0 00-.901 3.655c1.589 6.94 4.451 28.766-28.501 13.774a2.753 2.753 0 00-2.649.212z" fill="#000"/><path d="M285.826 212.831a46.336 46.336 0 01-7.098-.53 6.725 6.725 0 01-5.509-5.086c-2.49-10.595-5.934-38.196 15.733-65.849.171-.171.313-.368.424-.583 2.807-5.191 28.183-50.75 48.527-53.718 18.381-2.701 52.286 26.542 62.245 35.547a6.621 6.621 0 011.96 6.569 48.314 48.314 0 01-7.363 16.37 6.73 6.73 0 01-8.37 2.172c-5.139-2.437-15.098-7.046-23.998-10.542-15.364-5.986-16.846-4.397-16.952-4.291-.106.106-6.782 50.487-34.065 71.2-7.662 5.827-16.175 8.741-25.534 8.741zm54.619-123.858a15.108 15.108 0 00-2.224.159c-19.338 2.86-44.236 47.572-46.991 52.658-.176.312-.37.613-.583.9-21.136 26.912-17.8 53.718-15.364 64.049.207.885.676 1.69 1.348 2.305a4.497 4.497 0 002.415 1.137c11.495 1.748 21.931-.846 31.044-7.787 26.54-20.183 33.215-69.292 33.269-69.769.027-.347.144-.68.34-.968.194-.288.46-.52.772-.674 1.43-.795 5.033-1.166 19.654 4.609 8.689 3.443 18.223 7.893 23.15 10.224a4.613 4.613 0 005.722-1.483 46.74 46.74 0 007.099-15.681 4.603 4.603 0 00-1.378-4.45c-19.124-17.376-43.97-35.23-58.273-35.23z" fill="#000"/><path d="M345.848 209.705a25.647 25.647 0 01-10.277-2.012l-.53-.266-1.589-37.719a1.11 1.11 0 011.007-1.113c.138-.007.278.013.409.062a1.05 1.05 0 01.602.544c.059.126.094.262.101.401l1.484 36.395c2.596 1.06 13.031 4.396 23.944-3.497l4.45-63.624a1.052 1.052 0 01.281-.869 1.058 1.058 0 011.785 1.028l-4.45 64.577-.424.319c-6.039 4.502-12.025 5.774-16.793 5.774zm-210.05-1.536c-5.615 0-10.701-2.12-15.151-6.357-17.8-16.953 11.92-79.782 13.191-82.431a1.015 1.015 0 01.587-.534 1.011 1.011 0 01.791.057 1.01 1.01 0 01.529 1.378c-.317.635-30.302 64.101-13.614 79.994 4.238 4.079 9.165 5.985 14.568 5.773 13.88-.634 26.859-15.31 26.965-15.416.192-.172.441-.269.699-.273a1.06 1.06 0 01.89 1.651c-.53.636-13.668 15.47-28.448 16.158h-1.007z" fill="#000"/><path d="M138.023 170.98a1.062 1.062 0 01-1.059-1.006c0-.266-.795-27.655 14.833-47.839a7.699 7.699 0 011.483-1.43c4.08-2.702 5.404-4.715 5.245-5.298a1.06 1.06 0 01.848-1.218.942.942 0 01.793.115.955.955 0 01.425.68c.424 1.96-1.642 4.45-6.145 7.522a5.39 5.39 0 00-1.007.901c-15.151 19.601-14.356 46.248-14.356 46.513a.985.985 0 01-.276.745.982.982 0 01-.731.315h-.053zm-3.231-50.063a1.057 1.057 0 01-1.06-.953c-.053-.477-1.483-12.45 3.391-20.608a1 1 0 011.045-.518c.137.022.268.072.385.147a1.012 1.012 0 01.518 1.046 1 1 0 01-.147.384c-4.45 7.576-3.126 19.178-3.073 19.284a1.054 1.054 0 01-.555 1.045 1.056 1.056 0 01-.398.12l-.106.053zm101.448-20.29a1.053 1.053 0 01-.78-.235 1.066 1.066 0 01.57-1.884 27.031 27.031 0 0012.873-7.681c7.839-8.212 10.489-21.085 7.681-37.242l-.158-.636a2.594 2.594 0 00-1.591-1.748c-4.662-1.643-10.33-4.344-11.072-7.735-.212-.9-.158-2.278 1.272-3.655 1.43-1.378 2.86.053 4.29 1.271 1.432 1.219 2.49 2.172 3.708 2.172h.054a1.058 1.058 0 011.06 1.06.999.999 0 01-.276.746.999.999 0 01-.732.313h-.106c-1.96 0-3.708-1.483-5.138-2.702-.48-.445-.994-.852-1.536-1.218a1.623 1.623 0 00-.467.698c-.094.27-.115.558-.063.838.424 1.855 4.132 4.238 9.695 6.252a4.714 4.714 0 012.966 3.178l.16.742c3.76 21.402-2.436 33.163-8.317 39.255a29.773 29.773 0 01-13.881 8.211h-.212zm23.788 12.344a1.119 1.119 0 01-1.008-.689 1.166 1.166 0 01.636-1.377c.054 0 4.503-1.855 8.477-10.49 3.972-8.635 7.735-23.892 5.72-53.24-.052-.53-.264-5.033.796-7.258.265-.636.953-1.537 2.279-3.232 2.754-3.496 7.838-10.065 7.15-13.615a4.458 4.458 0 00-.582-1.642c-.318.159-1.06.9-2.014 3.02a1.056 1.056 0 01-1.723.286 1.062 1.062 0 01-.183-1.187c1.376-3.02 2.702-4.45 4.132-4.291 1.43.159 2.278 2.596 2.436 3.39.901 4.503-4.184 11.02-7.522 15.31a28.996 28.996 0 00-2.066 2.861c-.688 1.43-.636 4.98-.582 6.251 3.92 57.85-14.782 65.532-15.576 65.85l-.37.053zm-23.258 85.555h-.106c-23.998-1.588-55.571-3.018-71.888-2.542a1.025 1.025 0 01-.414-.065.999.999 0 01-.645-.995 1.015 1.015 0 01.609-.978 1.02 1.02 0 01.397-.08c16.37-.478 47.997.952 72.101 2.542a1.11 1.11 0 011.006 1.112 1.114 1.114 0 01-1.06 1.006z" fill="#000"/><path d="M115.773 255.265a8.052 8.052 0 018.053-8.001c36.659-.106 187.482.53 188.489 16.636 1.166 18.329 2.86 178.157-5.139 179.853-7.999 1.694-185.575-22.886-189.548-28.606-3.974-5.723-2.225-127.249-1.855-159.882z" fill="#3474C9"/><path d="M299.548 395.227h-.054a1 1 0 01-.73-.313 1.005 1.005 0 01-.276-.747c.054-1.112 4.768-107.593-1.537-121.262-1.43-3.073-12.819-8.793-73.212-12.502-34.593-2.12-68.869-2.544-69.24-2.596a1.008 1.008 0 01-.946-.657 1.009 1.009 0 01-.06-.403 1.06 1.06 0 011.059-1.058c.318.052 34.646.476 69.293 2.594 20.396 1.272 36.871 2.862 49.056 4.769 21.084 3.232 24.898 6.674 25.959 8.952 6.514 14.146 1.906 117.819 1.748 122.217a1.115 1.115 0 01-1.06 1.006zM134.527 269.78c2.077 0 3.761-2.064 3.761-4.608 0-2.546-1.684-4.611-3.761-4.611-2.078 0-3.761 2.065-3.761 4.611 0 2.544 1.683 4.608 3.761 4.608z" fill="#000"/><path d="M288.157 284.348a4.873 4.873 0 100-9.747 4.872 4.872 0 00-4.873 4.874 4.873 4.873 0 004.873 4.873z" fill="#000"/><path d="M334.512 436.39h-.054a1.111 1.111 0 01-1.006-1.113c0-.477 2.119-47.097 2.649-94.721.848-79.359-3.021-100.442-6.411-104.151-.636-.742-5.35-2.808-34.433-5.934-17.323-1.854-40.898-3.814-70.142-5.933-49.797-3.548-99.382-6.198-99.859-6.198a1.105 1.105 0 01-.719-.361 1.106 1.106 0 01-.287-.751 1.054 1.054 0 011.112-1.006c.53 0 50.063 2.648 99.913 6.198 101.185 7.257 104.787 11.231 106.005 12.555 5.297 5.775 7.629 41.322 6.941 105.581-.53 47.73-2.65 94.35-2.65 94.827a1.055 1.055 0 01-.329.715 1.054 1.054 0 01-.73.292z" fill="#000"/><path d="M176.378 383.096a46.72 46.72 0 01-43.168-28.844 46.727 46.727 0 0134.053-63.708 46.71 46.71 0 0126.996 2.659 46.72 46.72 0 0128.844 43.167 46.777 46.777 0 01-46.725 46.726zm0-91.332a44.613 44.613 0 00-41.21 27.538 44.603 44.603 0 0032.508 60.817 44.602 44.602 0 0045.79-18.966 44.614 44.614 0 007.519-24.783 44.651 44.651 0 00-13.082-31.524 44.652 44.652 0 00-31.525-13.082z" fill="#000"/><path d="M175.16 375.361c-19.495 0-35.335-17.111-35.335-38.195 0-21.086 15.84-38.197 35.335-38.197s35.334 17.165 35.334 38.197c0 21.03-15.839 38.195-35.334 38.195zm0-74.272c-18.33 0-33.216 16.209-33.216 36.077 0 19.866 14.886 36.075 33.216 36.075 18.329 0 33.216-16.157 33.216-36.075 0-19.92-14.887-36.077-33.216-36.077z" fill="#000"/><path d="M169.279 312.478h-.053a1.055 1.055 0 01-.734-.347 1.056 1.056 0 01-.272-.765l.317-9.907a1.016 1.016 0 01.332-.751 1.03 1.03 0 01.363-.212 1.02 1.02 0 01.418-.043 1.008 1.008 0 01.946.657c.047.13.068.266.06.403l-.317 9.959a1.063 1.063 0 01-1.06 1.006zm11.336-2.012h-.316a1.115 1.115 0 01-.69-1.378l2.86-8.105a1.06 1.06 0 011.378-.636 1.002 1.002 0 01.636 1.324l-2.86 8.105a1.064 1.064 0 01-1.008.69zm6.941 4.026a1.092 1.092 0 01-.431-.075 1.083 1.083 0 01-.363-.243 1.114 1.114 0 010-1.484l6.516-6.463a1.055 1.055 0 011.384.099 1.055 1.055 0 01.099 1.384l-6.463 6.464a1.067 1.067 0 01-.742.318zm6.038 5.669a1.068 1.068 0 01-1.006-.743 1.12 1.12 0 01.11-.808c.138-.246.365-.429.632-.516l9.059-2.754c.275-.077.568-.043.816.095a1.07 1.07 0 01.411 1.461c-.138.25-.37.433-.645.51l-9.059 2.755h-.318zm3.286 8.952a1.022 1.022 0 01-.747-.275 1.02 1.02 0 01-.313-.731c-.014-.142 0-.284.043-.418a1.013 1.013 0 01.963-.696l10.119-.422a1.051 1.051 0 01.784.289 1.064 1.064 0 01.328.769 1.031 1.031 0 01-.274.748 1.03 1.03 0 01-.732.312l-10.119.424h-.052zm-35.335-17.059a1.11 1.11 0 01-1.007-.688l-2.013-6.093a1.107 1.107 0 01.068-.826c.128-.257.35-.455.621-.55a1.113 1.113 0 011.324.688l2.013 6.093a1.005 1.005 0 01-.635 1.324l-.371.052zm-7.682 4.504a1.13 1.13 0 01-.516-.153 1.13 1.13 0 01-.385-.377l-2.754-4.396a1.119 1.119 0 01-.134-.805 1.12 1.12 0 01.451-.679 1.069 1.069 0 01.821-.132 1.054 1.054 0 01.663.502l2.755 4.398a1.056 1.056 0 01-.053 1.202c-.086.115-.194.21-.318.28a1 1 0 01-.53.16zm-4.45 7.257a.992.992 0 01-.741-.264l-3.867-3.391a1.159 1.159 0 01-.343-.749c-.02-.282.064-.562.237-.787a1.11 1.11 0 011.536-.054l3.867 3.391a1.164 1.164 0 01.106 1.536 1.16 1.16 0 01-.795.318zm-3.285 8.159l-.423-.106-3.656-1.643a1.053 1.053 0 01-.544-.582 1.055 1.055 0 01.015-.796 1 1 0 01.573-.564 1.017 1.017 0 01.804.034l3.655 1.59c.264.117.472.331.58.599.109.266.11.564.003.832a1.164 1.164 0 01-1.007.636zm20.502 20.289c-8.052 0-14.621-7.15-14.621-15.893 0-8.741 6.569-15.892 14.621-15.892 8.053 0 14.675 7.151 14.675 15.892 0 8.743-6.569 15.893-14.675 15.893zm0-29.666c-6.887 0-12.502 6.198-12.502 13.773 0 7.577 5.615 13.775 12.502 13.775 6.887 0 12.556-6.198 12.556-13.775 0-7.575-5.616-13.773-12.556-13.773z" fill="#000"/><path d="M162.18 347.125c5.033 0 9.112-4.269 9.112-9.535 0-5.268-4.079-9.537-9.112-9.537-5.032 0-9.112 4.269-9.112 9.537 0 5.266 4.08 9.535 9.112 9.535z" fill="#fff"/><path d="M162.18 348.185c-5.615 0-10.171-4.768-10.171-10.595 0-5.828 4.556-10.597 10.171-10.597 5.616 0 10.172 4.769 10.172 10.597 0 5.827-4.556 10.595-10.172 10.595zm0-19.072c-4.45 0-8.052 3.815-8.052 8.477 0 4.66 3.602 8.475 8.052 8.475 4.45 0 8.053-3.815 8.053-8.475 0-4.662-3.603-8.477-8.053-8.477zm97.158-287.448a1.006 1.006 0 01-1.218-.742 1.007 1.007 0 01.742-1.218c.848-.477 1.272-.953 1.324-1.536.054-.583-1.536-2.861-2.436-3.497-3.127-1.377-4.239-.106-5.563 1.43a9.238 9.238 0 01-1.696 1.537 2.86 2.86 0 01-2.172.477 3.343 3.343 0 01-2.012-1.642 4.613 4.613 0 01.212-4.98 12.446 12.446 0 017.84-5.139c3.761-.742 7.681.265 11.654 2.967a1.06 1.06 0 01.318 1.483 1.049 1.049 0 01-.687.442 1.05 1.05 0 01-.796-.177c-3.55-2.384-6.94-3.285-10.066-2.649a10.488 10.488 0 00-6.515 4.238 2.585 2.585 0 00-.476 1.355c-.029.487.081.972.316 1.4.158.279.399.5.69.636.21-.014.411-.088.582-.212.458-.33.868-.723 1.218-1.166 1.378-1.589 3.496-3.973 8.105-1.907l.212.106c.372.265 3.602 2.702 3.39 5.457-.052.9-.528 2.225-2.488 3.231a.796.796 0 01-.478.106z" fill="#000"/><path d="M263.947 29.798a1.119 1.119 0 01-1.007-.741c-.37-1.272-1.588-2.914-2.754-4.503-1.96-2.65-3.972-5.351-3.602-7.735a4.13 4.13 0 011.748-2.596 3.494 3.494 0 013.39-.265c4.663 1.908 9.589 13.086 9.747 14.04a1.057 1.057 0 01-.794 1.217 1.056 1.056 0 01-1.27-.794c-.424-1.43-5.086-11.231-8.583-12.555a1.38 1.38 0 00-1.272.106 1.704 1.704 0 00-.848 1.165c-.264 1.536 1.536 3.973 3.18 6.145 1.642 2.172 2.595 3.55 3.073 5.139a1.019 1.019 0 01-.051.815 1 1 0 01-.639.51l-.318.052z" fill="#000"/><path d="M275.708 29.534l-.476-.107a1.11 1.11 0 01-.53-1.324c.265-1.324.212-12.926-2.067-15.628a.424.424 0 00-.476-.106.534.534 0 00-.212.53c.636 2.437.53 9.218-.9 13.191a1.08 1.08 0 01-.555.608 1.07 1.07 0 01-.823.028 1.008 1.008 0 01-.605-.525.961.961 0 01-.097-.396.99.99 0 01.066-.404c1.272-3.496 1.43-9.853.848-11.972a2.594 2.594 0 011.324-2.914 2.44 2.44 0 013.02.583c3.019 3.55 3.019 16.74 2.437 17.853a1.006 1.006 0 01-.954.582zM135.057 179.879a5.975 5.975 0 01-1.695-.265 1.044 1.044 0 01-.609-.555 1.062 1.062 0 01-.027-.823.997.997 0 01.524-.603.994.994 0 01.8-.031c3.814 1.376 11.072-6.04 14.78-11.021a1.09 1.09 0 01.308-.274c.12-.072.253-.119.39-.137a1.045 1.045 0 01.786.201 1.163 1.163 0 01.212 1.482c-1.007 1.325-9.112 12.026-15.469 12.026zm147.961 7.364l-.476-.106a1.036 1.036 0 01-.537-.616 1.07 1.07 0 01-.052-.413c.01-.141.048-.275.113-.401.106-.212 11.177-22.144 29.984-15.681a1.002 1.002 0 01.703.921c.005.139-.018.275-.068.403a1.061 1.061 0 01-1.325.69c-17.057-5.881-27.282 14.409-27.388 14.621a1.072 1.072 0 01-.393.428 1.065 1.065 0 01-.561.154zm-99.752-74.802c-2.438 0-5.457-1.96-5.775-2.225a1.05 1.05 0 01-.472-.675 1.06 1.06 0 01.154-.808 1.108 1.108 0 011.483-.265c1.165.794 3.55 2.013 4.822 1.854a1.008 1.008 0 01.778.197c.109.084.199.19.265.311a.974.974 0 01.121.393 1.044 1.044 0 01-.194.798 1.033 1.033 0 01-.311.281c-.12.073-.255.12-.395.139h-.476zm1.27-18.701a.789.789 0 01-.476-.106 1.06 1.06 0 01-.424-1.43 7.627 7.627 0 014.08-3.179 1.056 1.056 0 011.376.583c.088.267.072.558-.047.814a1.104 1.104 0 01-.589.563 5.995 5.995 0 00-2.966 2.225 1.058 1.058 0 01-.954.53z" fill="#000"/><path d="M256.478 123.301h-.264l-20.82-5.563a1.042 1.042 0 01-.65-.505 1.04 1.04 0 01-.092-.819 1.06 1.06 0 011.272-.741l20.818 5.509a1.065 1.065 0 01.927 1.192 1.064 1.064 0 01-1.191.927zm-24.687 61.77c-5.668 0-15.681-7.523-21.297-12.079a3.393 3.393 0 01-.582-4.661l8.264-11.337a3.387 3.387 0 014.503-.954c3.284 1.855 11.497 6.781 16.899 11.177a8.328 8.328 0 012.952 4.167 8.309 8.309 0 01-.038 5.104c-1.378 4.451-5.88 8.213-10.225 8.583h-.476zm-20.183-15.521a1.317 1.317 0 00.212 1.8c9.217 7.522 16.793 11.867 20.289 11.603 3.497-.266 7.257-3.445 8.369-7.099.584-1.908.69-4.662-2.224-6.994-5.298-4.291-13.403-9.111-16.687-11.019a1.33 1.33 0 00-1.697.372l-8.262 11.337z" fill="#fff"/><path d="M211.184 173.258a1.06 1.06 0 01-1.06-.954 1.08 1.08 0 01.038-.415c.041-.133.107-.259.195-.367a1.074 1.074 0 01.721-.384l11.283-1.27a2.122 2.122 0 001.536-.955 2.159 2.159 0 00.16-1.802l-3.974-10.329a1.05 1.05 0 01.029-.822 1.051 1.051 0 01.607-.555 1.014 1.014 0 01.799.03c.124.06.236.144.326.248.089.104.158.226.199.357l3.974 10.277a4.188 4.188 0 01-3.444 5.669l-11.283 1.272h-.106z" fill="#fff"/><path d="M219.343 167.853a1.43 1.43 0 100-2.86 1.43 1.43 0 000 2.86zm-44.978 24.529c-.281 0-.551-.112-.749-.311a1.056 1.056 0 01-.311-.749c0-.159-.265-14.728-8.211-24.051a1.07 1.07 0 01-.252-1.232 1.072 1.072 0 01.658-.57c.144-.043.295-.055.444-.036a1.049 1.049 0 01.739.46c8.476 9.961 8.741 24.794 8.741 25.376a1.051 1.051 0 01-.291.784 1.067 1.067 0 01-.768.329z" fill="#fff"/><path d="M154.234 88.23a1.109 1.109 0 01-1.007-.794c-.053-.318-2.225-8.052 1.219-13.827a18.498 18.498 0 013.072-3.814c1.59-1.642 1.96-2.066.159-5.404a1.004 1.004 0 01.424-1.43 1.058 1.058 0 011.43.424c2.437 4.503 1.484 5.827-.529 7.893a17.525 17.525 0 00-2.755 3.444c-2.967 4.927-1.007 12.078-.954 12.131a1.058 1.058 0 01-.741 1.325l-.318.053zm12.45-4.873a1.112 1.112 0 01-1.007-.794c-.053-.212-1.483-5.563 3.814-10.278a45.108 45.108 0 012.967-2.33c2.596-1.855 2.914-2.067 1.112-6.782-1.801-4.715-1.642-6.516-.159-8.052.303-.25.555-.556.742-.9a1.067 1.067 0 011.907.953 6.021 6.021 0 01-1.165 1.483c-.636.636-1.113 1.166.635 5.775 2.278 5.88 1.325 6.992-1.801 9.218-.794.635-1.748 1.27-2.807 2.224-4.345 3.868-3.232 8.106-3.179 8.106a1.111 1.111 0 01-.742 1.324l-.317.053zm10.647-5.987a1.323 1.323 0 01-.635-.211 1.053 1.053 0 01-.413-.698 1.063 1.063 0 01.201-.785c3.285-4.45 3.285-4.556 2.966-6.04a20.527 20.527 0 01-.317-1.695 4.92 4.92 0 011.166-4.079c2.33-2.543 7.045-2.331 7.205-2.331a1.011 1.011 0 01.751.331.994.994 0 01.21.364c.045.134.059.277.045.418a1.007 1.007 0 01-1.06 1.006c-1.112-.053-4.239.159-5.563 1.642a2.622 2.622 0 00-.62 1.112 2.633 2.633 0 00-.016 1.272c.045.519.133 1.033.266 1.537.476 2.33.264 2.913-3.338 7.734a1.112 1.112 0 01-.848.424zm6.676 3.02a1.48 1.48 0 01-.636-.211 1.082 1.082 0 01-.276-.308 1.063 1.063 0 01.064-1.176c.636-.847 3.921-5.032 6.463-5.032h.106c.582 0 1.006-.053 1.166-.265.158-.212.212-1.537.106-2.543-.106-1.007-.372-3.39.794-4.556s1.96-1.166 3.655-1.007a1.056 1.056 0 01.946.703c.047.131.069.27.061.41a1.17 1.17 0 01-1.166 1.006c-1.006-.106-1.696.053-1.96.318s-.318 1.802-.212 2.914c.106 1.112.37 3.126-.636 4.238a3.595 3.595 0 01-2.806.9h-.054c-.954 0-3.232 2.12-4.768 4.186a1.108 1.108 0 01-.847.424zm-32.157 21.88a4.548 4.548 0 01-1.695-.265c-1.907-.742-3.126-2.649-3.709-5.722-.847-4.661-.529-5.933-.318-6.833.212-.901.212-.901-.688-3.232-.424-1.112-.848-2.013-1.166-2.702-1.377-3.072-1.695-4.079.795-7.046a1.059 1.059 0 011.483-.159 1.167 1.167 0 01.159 1.537c-1.748 2.066-1.748 2.119-.53 4.768.371.741.742 1.642 1.219 2.807 1.059 2.702 1.059 3.39.795 4.503-.265 1.113-.424 1.801.37 5.987.265 1.536.901 3.55 2.331 4.079 1.431.53 3.444-.477 4.079-.954a1.06 1.06 0 011.272 1.695c-.106.053-2.119 1.537-4.397 1.537zm.53 7.575c-1.484 0-8.053-.265-8.635-5.244-.265-2.172-3.232-3.603-6.093-4.98-2.86-1.378-4.45-2.172-5.615-3.708-1.166-1.537-1.536-2.967-1.007-4.45.511-1.208.781-2.504.795-3.815a1.114 1.114 0 011.113-1.006 1.058 1.058 0 011.006 1.112 12.439 12.439 0 01-.901 4.45c-.37.9-.37 1.007.689 2.437 1.06 1.43 2.861 2.12 4.821 3.073 3.232 1.536 6.887 3.337 7.311 6.622.424 3.284 6.675 3.39 6.728 3.39a1.165 1.165 0 011.112 1.06.997.997 0 01-.275.746 1.015 1.015 0 01-.731.313h-.318zm247.556 266.31a.78.78 0 01-.476-.106 1.01 1.01 0 01-.534-.585 1.021 1.021 0 01.058-.793c.158-.422 5.138-10.807 9.323-14.355 1.112-.954 2.12-4.874 1.748-11.125-.9-13.879-8.159-32.845-25.852-44.342a1.698 1.698 0 01-.511-.605 1.713 1.713 0 01-.177-.771 1.43 1.43 0 01.688-1.326c1.06-.688 3.55-2.648 4.026-5.19.264-1.379-.106-2.755-1.06-4.185a1.045 1.045 0 01-.165-.381 1.046 1.046 0 01.142-.803 1.066 1.066 0 011.771-.036 7.516 7.516 0 011.43 5.829c-.528 2.808-2.754 4.872-4.342 6.092 17.905 11.971 25.216 31.361 26.17 45.558.37 6.411-.53 11.179-2.49 12.873-3.868 3.286-8.741 13.563-8.795 13.669a1.1 1.1 0 01-.399.419c-.167.102-.357.16-.555.163z" fill="#000"/><path d="M392.15 326.411a1.113 1.113 0 01-1.007-.688c-1.218-3.286-8.106-9.431-10.648-11.497a1.055 1.055 0 01-.085-1.423 1.053 1.053 0 011.409-.219c.372.318 9.642 7.895 11.337 12.397.05.131.073.273.07.413a1.1 1.1 0 01-.097.41c-.06.127-.144.242-.248.338a1.035 1.035 0 01-.361.215l-.37.054zm-8.211 4.08a1.076 1.076 0 01-.902-.478c-3.072-4.98-8.953-21.083-9.059-22.461a1.077 1.077 0 01.235-.78c.18-.219.439-.358.719-.387a1.07 1.07 0 011.166.954c.212 1.273 5.721 16.688 8.741 21.562.142.234.187.512.127.78-.059.266-.219.5-.445.65a1.22 1.22 0 01-.582.16zm-3.497-34.223a1.056 1.056 0 01-.954-.636 1.035 1.035 0 01-.104-.409 1.073 1.073 0 01.288-.778c.098-.103.215-.185.346-.243 6.515-2.914 15.734-8.37 15.786-11.125 0-.16 0-.688-1.164-1.272-10.171-5.032-24.158-4.502-24.264-4.502-.14.014-.282 0-.417-.045a1.004 1.004 0 01-.695-.961c-.008-.14.014-.279.061-.41a1.066 1.066 0 01.544-.604c.126-.059.262-.093.401-.1.584 0 14.621-.528 25.324 4.716 1.958 1.006 2.33 2.278 2.33 3.23-.106 5.087-14.197 11.761-17.059 13.033l-.423.106z" fill="#000"/><path d="M373.66 308.241a9.79 9.79 0 01-6.993-2.756.997.997 0 01-.325-.742c0-.138.029-.276.084-.404.056-.127.139-.242.241-.336a1.063 1.063 0 011.484-.054c5.775 5.617 15.894-1.694 16-1.8a1.043 1.043 0 01.796-.178 1.076 1.076 0 01.686.442 1.058 1.058 0 01-.212 1.484c-.318.212-5.987 4.344-11.761 4.344z" fill="#000"/></svg>