<svg width="625" height="385" fill="none" xmlns="http://www.w3.org/2000/svg"><path d="M435.856 35.005l.269.044a336.929 336.929 0 0170.945 35.8c33.811 22.42 76.711 60.707 89.026 115.796a1.816 1.816 0 01-1.37 2.169 1.72 1.72 0 01-1.904-.704 1.708 1.708 0 01-.266-.667c-12.058-53.849-54.241-91.462-87.451-113.6a339.046 339.046 0 00-70.094-35.386 1.723 1.723 0 01-1.198-2.221c.135-.42.415-.774.792-.998.374-.227.821-.31 1.251-.233z" fill="#3474C9"/><path d="M608.101 154.532l.269.044a1.736 1.736 0 011.085.849 1.733 1.733 0 01.116 1.376l-9.066 29.922a6.908 6.908 0 01-10.963 3.359l-19.417-15.816a1.816 1.816 0 01-.32-2.539 1.908 1.908 0 012.63-.305l19.418 15.812c.409.359.905.6 1.438.703a3.064 3.064 0 001.597-.11 2.916 2.916 0 002.102-2.142l9.156-29.91a1.82 1.82 0 011.955-1.243zM147.017 37.323a1.575 1.575 0 01-.469.796 1.59 1.59 0 01-.835.393C98.275 43.963 62.129 76.79 40.172 103.333a287.995 287.995 0 00-36.767 57.01 1.58 1.58 0 01-.881.84 1.59 1.59 0 01-2.16-1.521c.006-.209.052-.414.136-.604a291.232 291.232 0 0137.203-57.707c22.406-26.99 59.195-60.375 107.644-65.953a1.568 1.568 0 011.74 1.375l-.07.55z" fill="#3474C9"/><path d="M149.328 38.692a5.972 5.972 0 01-1.624 2.648l-15.35 15.248a1.565 1.565 0 01-1.158.636 1.57 1.57 0 01-1-2.86l15.35-15.247a2.895 2.895 0 00.783-2.553 2.746 2.746 0 00-1.725-2.021l-24.866-10.584a1.49 1.49 0 01-.83-2.018c.073-.193.184-.367.326-.514a1.47 1.47 0 01.504-.34 1.476 1.476 0 011.191.024l24.963 10.526a6.05 6.05 0 013.436 7.055zM116 133c8.284 0 15-6.715 15-15 0-8.283-6.716-15-15-15-8.284 0-15 6.717-15 15 0 8.285 6.716 15 15 15z" fill="#3474C9"/><path d="M167.679 189.536l-.663-.193a7.669 7.669 0 01-2.257-1.855c-6.238-7.236-15.332-15.623-22.102-17.606l-.596.255c0 .064-.132.961 2.587 3.456a79.743 79.743 0 0111.284 12.87 1.26 1.26 0 01-.022 1.44 1.36 1.36 0 01-1.389.531 1.335 1.335 0 01-.847-.564 77.895 77.895 0 00-10.818-12.419c-2.854-2.562-3.848-4.48-3.252-6.146.598-1.664 2.788-1.986 3.053-1.986h.465c9.291 2.433 20.443 14.791 23.695 18.503.41.524.93.961 1.525 1.281.308.163.536.435.635.759.1.324.063.673-.104.969a1.423 1.423 0 01-.502.5 1.53 1.53 0 01-.692.205zm-38.096-1.409a1.348 1.348 0 01-.875-.305 1.274 1.274 0 01-.453-.784 1.198 1.198 0 01.021-.495 1.219 1.219 0 01.616-.767 1.27 1.27 0 01.492-.146c2.058-.32 5.442-.32 9.756-.063h.199a1.395 1.395 0 011.01.416 1.316 1.316 0 01.384.99 1.32 1.32 0 01-.185.521 1.322 1.322 0 01-.383.405 1.429 1.429 0 01-1.092.228 54.39 54.39 0 00-9.291 0h-.199z" fill="#282928"/><path d="M129.583 188.127h-.067c-.73 0-7.499-.127-9.69-3.202-.84-1.195-1.04-2.282-.598-3.264.798-1.536 3.053-1.729 5.311-1.856 2.255-.13 20.839.832 21.569.896a1.285 1.285 0 01.943.4 1.17 1.17 0 01.318.944c-.009.168-.05.333-.126.485a1.329 1.329 0 01-.754.659c-.164.056-.34.081-.513.073-.199-.065-18.451-1.024-21.305-.897-2.853.128-2.721.32-2.986.447.096.222.206.435.332.642 1.062 1.471 5.176 2.113 7.566 2.113.353.029.68.184.925.43.245.247.388.573.401.914-.03.322-.182.625-.427.848a1.423 1.423 0 01-.899.368z" fill="#282928"/><path d="M139.803 193.312c-3.716 0-7.698-.382-10.352-1.343-2.657-.96-2.657-1.986-2.722-2.818-.067-.832 1.127-2.752 1.924-3.2a1.376 1.376 0 011.016-.125c.343.09.633.307.809.604.177.299.223.65.13.98-.094.33-.319.611-.627.782a1.292 1.292 0 00-.598.767c0 .065.2.32 1.062.642 4.513 1.663 13.739 1.216 16.859.574-1.46-.767-5.178-1.728-8.894-2.175a1.323 1.323 0 01-.713-.533 1.252 1.252 0 01.217-1.622c.225-.205.517-.326.827-.343 2.191.257 9.625 1.281 11.284 3.714.191.268.325.571.395.888.067.32.069.648.002.968a1.787 1.787 0 01-.377.646 1.85 1.85 0 01-.618.443c-1.328.704-5.31 1.151-9.624 1.151z" fill="#282928"/><path d="M141.196 198.305c-2.256 0-4.18-.255-5.308-.894-1.129-.642-2.921-2.305-2.988-3.649-.065-1.346 1.594-2.818 1.727-2.945.143-.121.309-.211.489-.263.182-.053.371-.067.559-.044.187.025.366.088.527.184.16.096.297.223.403.376.104.15.173.324.206.504a1.259 1.259 0 01-.286 1.019c-.12.14-.269.255-.438.335a1.278 1.278 0 00-.531.769c0 .255.464.832 1.66 1.471 1.194.642 9.953.577 12.809-1.087a.931.931 0 00-.067-.831c-.399-.642-1.393-.642-1.924-.577-.355.002-.7-.119-.969-.343a1.392 1.392 0 01-.491-.874c-.003-.336.125-.66.359-.909.234-.248.555-.403.902-.434 3.451-.257 4.513 1.856 4.712 2.495.197.642 0 2.945-1.064 3.586-2.188 1.344-6.569 2.111-10.287 2.111z" fill="#282928"/><path d="M145.179 201.635a6.132 6.132 0 01-3.783-1.087 3.787 3.787 0 01-1.185-1.515 3.63 3.63 0 01-.273-1.879c.047-.328.227-.625.5-.828.273-.205.615-.297.958-.261.346.048.661.219.882.481.223.261.333.591.314.927-.039.207-.015.418.067.611.082.194.219.359.396.478.598.45 2.657 1.217 8.895-1.024.598-.192.994-.832.929-.959-.067-.13-.331-.322-1.261-.449a1.385 1.385 0 01-.5-.145 1.298 1.298 0 01-.646-.762 1.274 1.274 0 01-.05-.502 1.4 1.4 0 01.537-.855c.282-.213.633-.318.991-.297 2.985.385 3.516 1.984 3.583 2.688.067.704-1.194 3.202-2.721 3.714-3.12 1.089-5.642 1.664-7.633 1.664z" fill="#282928"/><path d="M149.427 200.93a1.347 1.347 0 01-.894-.328 1.267 1.267 0 01-.434-.823 1.261 1.261 0 01.696-1.265c.156-.079.325-.127.498-.144l1.528-.192c4.381-.575 8.827-1.087 10.818.129.29.195.492.487.565.82.074.332.013.681-.167.971-.19.276-.483.469-.816.54a1.369 1.369 0 01-.975-.155c-1.394-.832-6.903-.065-9.027.257l-1.659.19h-.133zm177.407 133.035h-1.129l-98.759-11.395a10.639 10.639 0 01-3.984-1.306 10.225 10.225 0 01-3.116-2.727 13.644 13.644 0 01-2.325-5.012 13.444 13.444 0 01-.132-5.488l41.349-243.79c1.129-6.657 6.704-11.267 12.677-10.563l95.905 11.46c1.389.19 2.728.645 3.935 1.337a10.508 10.508 0 013.101 2.696 13.624 13.624 0 012.337 4.942 13.41 13.41 0 01.185 5.43l-38.563 243.596c-.994 6.274-5.906 10.82-11.481 10.82zm-56.68-277.784c-4.182 0-7.965 3.585-8.827 8.515l-41.349 243.788a10.836 10.836 0 00.1 4.454 11.045 11.045 0 001.892 4.063 7.92 7.92 0 002.335 2.048 8.19 8.19 0 002.973 1.024l98.694 11.267c4.578.512 8.892-3.265 9.689-8.579l38.56-243.596a10.738 10.738 0 00-.121-4.387 10.93 10.93 0 00-1.87-4c-1.261-1.65-3.144-2.753-5.243-3.073l-95.903-11.461-.93-.063z" fill="#282928"/><path d="M324.975 383.069l-1.857-.128-107.72-11.267a17.715 17.715 0 01-6.816-2.155 17.122 17.122 0 01-5.328-4.631 20.482 20.482 0 01-3.647-7.651 20.117 20.117 0 01-.203-8.419l51.105-274.2 2.654-29.896c1.792-10.308 10.885-17.542 20.642-16.39L376.347 40.37a17.905 17.905 0 016.664 2.21 17.218 17.218 0 015.215 4.576 20.37 20.37 0 013.658 7.482 19.97 19.97 0 01.325 8.266l-48.583 303.329c-1.593 9.731-9.625 16.837-18.651 16.837zm-109.311-13.892l107.718 11.204c8.429.894 16.129-5.507 17.589-14.534L389.552 62.52a17.664 17.664 0 00-.275-7.252 18.056 18.056 0 00-3.174-6.577 14.5 14.5 0 00-4.422-3.896 15.064 15.064 0 00-5.668-1.866l-102.54-12.036c-8.363-.96-16.129 5.25-17.721 14.213l-2.589 29.898-51.17 274.262a17.769 17.769 0 00.201 7.375 18.118 18.118 0 003.183 6.709 14.763 14.763 0 004.515 3.948 15.273 15.273 0 005.772 1.879z" fill="#282928"/><path d="M274.401 263.416c-6.438-6.723-17.654-53.779-17.654-53.779s49.181-32.073 60.33-27.144c0 0 18.983 21.384 19.314 41.805" fill="#fff"/><path d="M274.403 264.695a1.433 1.433 0 01-.997-.447c-6.572-6.851-17.455-52.433-17.921-54.354l-.199-.832.73-.512c5.111-3.329 50.111-32.267 61.592-27.274l.267.128.199.257c.795.896 19.314 21.959 19.645 42.637a1.198 1.198 0 01-.368.926 1.27 1.27 0 01-.44.276c-.167.06-.342.088-.52.079-.34 0-.67-.125-.917-.353a1.258 1.258 0 01-.411-.863c-.265-18.63-16.792-38.476-18.783-40.846-8.892-3.2-44.068 17.67-58.006 26.632 3.252 13.637 12.079 47.183 17.056 52.37a1.202 1.202 0 01.377.91 1.204 1.204 0 01-.442.882 1.22 1.22 0 01-.862.384z" fill="#282928"/><path d="M259.667 276.923a1.477 1.477 0 01-1.193-.639 1.48 1.48 0 01-.135-1.216c.865-2.818 19.648-15.303 35.176-25.226 20.575-13.123 40.952-25.159 51.903-30.729a1.368 1.368 0 011.005-.1c.336.096.617.315.786.612.091.144.15.307.174.476a1.19 1.19 0 01-.291.945 1.24 1.24 0 01-.413.307c-24.956 12.676-82.366 49.616-85.683 54.354a1.282 1.282 0 01-.666 1.024l-.663.192z" fill="#282928"/><path d="M341.834 384.797h-1.859l-16.859-1.791.266-2.562c8.429.896 16.129-5.505 17.587-14.532l48.583-303.33a17.655 17.655 0 00-.275-7.25 18.013 18.013 0 00-3.176-6.576 14.47 14.47 0 00-4.42-3.896 14.99 14.99 0 00-5.668-1.866l-88.272-10.436v-2.56a21.12 21.12 0 012.855.127l102.607 12.037c2.36.28 4.637 1.02 6.691 2.175a17.336 17.336 0 015.256 4.546 20.658 20.658 0 013.608 7.526c.674 2.715.778 5.532.307 8.287L360.482 367.96c-1.592 9.796-9.557 16.837-18.648 16.837zm-9.358-3.457l7.83.832c8.364.897 16.062-5.505 17.522-14.596l48.648-303.265c.412-2.41.317-4.876-.275-7.25a18.072 18.072 0 00-3.174-6.577 15.177 15.177 0 00-4.444-3.883 15.733 15.733 0 00-5.646-1.944l-8.162-.896a17.147 17.147 0 013.451 3.394 20.37 20.37 0 013.658 7.482 19.97 19.97 0 01.325 8.266l-48.583 303.329c-1.129 6.914-5.51 12.483-11.15 15.108z" fill="#282928"/><path d="M331.016 52.405h-.135l-28.935-3.01a1.343 1.343 0 01-.904-.464 1.29 1.29 0 01-.243-.443 1.218 1.218 0 01-.049-.502c.049-.334.227-.637.498-.85a1.42 1.42 0 01.962-.301l28.938 3.072c.173.017.344.065.498.144.156.08.293.188.403.32a1.235 1.235 0 01.293.945 1.268 1.268 0 01-.453.784 1.36 1.36 0 01-.873.305zm-59.8 314.274h-1.394c-7.633-.832-13.14-8.13-12.211-16.26.362-3.858 2.208-7.442 5.176-10.053a13.626 13.626 0 014.812-2.721 13.994 13.994 0 015.543-.608c1.883.199 3.703.788 5.328 1.726a12.981 12.981 0 014.095 3.716c2.301 3.146 3.317 6.998 2.853 10.82-.407 3.827-2.249 7.376-5.176 9.988-2.472 2.165-5.685 3.373-9.026 3.392zm.53-27.207c-2.66.023-5.217 1.005-7.167 2.752-2.483 2.178-4.043 5.165-4.381 8.388-.73 6.786 3.718 12.803 9.956 13.442a11.043 11.043 0 004.446-.487 10.786 10.786 0 003.85-2.201c2.453-2.192 3.989-5.176 4.314-8.387.418-3.212-.436-6.458-2.39-9.091a10.465 10.465 0 00-3.263-2.957 10.853 10.853 0 00-4.236-1.396l-1.129-.063z" fill="#282928"/><path d="M248.119 201.06s-11.282 5.632-14.003 3.712c-2.722-1.921-6.771-4.289-9.493-4.544-2.721-.257-10.087-4.034-12.012-2.947-1.924 1.089.068 5.123 3.385 5.507 3.319.385 7.434 2.048 6.636 2.945-.795.897-12.543 4.226-16.724 2.497-2.921-1.216-2.722 1.025-.863 2.688 2.986 2.69 15.132 1.793 15.132 1.793s-18.583-2.882-20.31.448c-.531 1.024 1.66 1.728 2.856 3.521 2.786 4.354 11.88 10.116 14.07 10.883 3.252 1.153 8.428 2.05 30.132-18.116h7.965l-6.771-8.387z" fill="#fff"/><path d="M217.92 220.777c-10.352 0-17.654-3.2-19.179-6.018a2.048 2.048 0 01.264-2.497c2.323-2.368 6.173-1.152 6.305-1.089.334.105.613.33.773.629.163.301.195.65.091.972a1.35 1.35 0 01-.691.75 1.42 1.42 0 01-1.035.082s-2.057-.64-3.253.192c1.196 1.601 9.159 5.699 22.566 4.099.187-.059.382-.076.577-.053a1.332 1.332 0 01.951.583c.106.159.173.339.197.525a1.28 1.28 0 01-.052.556 1.3 1.3 0 01-.769.794 1.346 1.346 0 01-.572.09 53.045 53.045 0 01-6.173.385z" fill="#282928"/><path d="M216.991 225.899c-13.54 0-14.933-7.618-14.998-8.002a1.252 1.252 0 01.247-.962 1.36 1.36 0 01.88-.512c.353-.05.71.036.996.24.289.205.477.51.531.849.065.32 1.526 7.426 17.323 5.507.171-.027.344-.021.513.021.167.04.325.113.462.215.136.103.251.23.333.379.085.146.135.307.152.472a1.267 1.267 0 01-.243.965 1.33 1.33 0 01-.886.508c-1.991.193-3.716.32-5.31.32z" fill="#282928"/><path d="M218.386 229.548a9.95 9.95 0 01-3.961-.786 9.672 9.672 0 01-3.274-2.286.139.139 0 01-.093-.038.122.122 0 01-.039-.09 1.234 1.234 0 01-.524-.727 1.174 1.174 0 01.126-.874 1.39 1.39 0 01.777-.627 1.451 1.451 0 011.014.051l.598.512c3.318 3.329 7.898 3.072 13.672-.705 5.774-3.776 6.836-4.928 8.03-6.081a27.612 27.612 0 014.844-3.714c6.308-4.032 14.404-5.633 14.736-5.698.351-.066.717.003 1.016.195.299.192.505.491.576.83.07.34-.002.693-.201.98a1.354 1.354 0 01-.86.556c-.067 0-7.965 1.538-13.806 5.25a21.445 21.445 0 00-4.379 3.394c-1.328 1.279-2.856 2.687-8.431 6.401-2.853 1.794-6.305 3.457-9.821 3.457zm-3.12-14.469c-3.718 0-9.358-.384-11.616-2.432-2.255-2.049-1.991-3.457-1.062-4.866.93-1.409 1.992-1.601 3.983-.769 1.991.834 10.818 0 14.27-.895a23.793 23.793 0 00-5.044-1.281 5.947 5.947 0 01-3.14-1.312 5.608 5.608 0 01-1.837-2.784 2.89 2.89 0 01.154-1.9 3.027 3.027 0 011.304-1.429c1.595-.897 4.448-.322 8.63.767 1.261.347 2.548.604 3.848.769 3.718.32 8.695 3.712 10.155 4.8 1.46 1.089 6.968-1.024 12.61-3.841a1.4 1.4 0 011.02-.073c.167.054.321.14.453.251.135.111.241.246.319.399.149.301.177.644.08.963a1.353 1.353 0 01-.611.765c-2.854 1.409-12.344 5.827-15.464 3.585-3.12-2.241-6.372-4.097-8.827-4.289a25.773 25.773 0 01-4.248-.897c-1.924-.447-5.84-1.408-6.637-1.024-.797.385-.264.193-.132.64.171.57.515 1.076.988 1.452a3.103 3.103 0 001.666.661c1.46.129 7.501 1.281 8.428 3.329.109.276.139.575.093.865a1.696 1.696 0 01-.357.801c-1.46 1.728-14.469 3.841-18.716 2.048a2.047 2.047 0 00-.797-.192c-.037.299.004.602.119.882.117.28.304.526.544.719 1.926 1.663 8.961 1.856 12.944 1.601.346-.003.682.121.94.346.258.226.42.536.453.87a1.18 1.18 0 01-.297.919c-.113.126-.249.23-.403.301a1.31 1.31 0 01-.496.124 29.85 29.85 0 01-3.317.127zm-1.595-138.466c.759-.121 1.216-1.152 1.017-2.303-.198-1.152-.973-1.986-1.732-1.865-.76.122-1.215 1.152-1.018 2.304.197 1.151.973 1.985 1.733 1.864zm-5.904-3.338a1.706 1.706 0 01-.875-.278 1.59 1.59 0 01-.585-.683 1.477 1.477 0 01-.078-1.223 1.53 1.53 0 01.34-.533c.152-.152.332-.274.533-.357l6.771-2.945c.405-.17.862-.178 1.274-.02.409.156.739.463.916.854.176.389.185.832.022 1.227a1.631 1.631 0 01-.886.884l-6.702 2.947-.73.127z" fill="#282928"/><path d="M221.239 105.989a14.103 14.103 0 01-5.841-1.281c-14.601-6.85-14.335-39.373-14.335-40.717 0-.34.139-.664.388-.904a1.355 1.355 0 011.879 0c.247.24.387.564.387.904 0 .32-.266 32.267 12.877 38.412 5.243 2.497 12.144.449 20.508-6.017a1.361 1.361 0 011.858.192 1.247 1.247 0 01-.199 1.791c-6.571 5.058-12.478 7.62-17.522 7.62zm7.948-31.347c.76-.121 1.215-1.154 1.018-2.303-.197-1.152-.973-1.988-1.733-1.867-.759.122-1.216 1.154-1.017 2.306.198 1.151.973 1.985 1.732 1.864zm1.876-7.771h-.334l-5.707-1.024a1.737 1.737 0 01-1.04-.677 1.628 1.628 0 01-.288-1.178c.098-.425.356-.799.724-1.048a1.84 1.84 0 011.267-.296l5.642 1.024a1.65 1.65 0 011.088.688 1.566 1.566 0 01.241 1.233c-.065.361-.26.69-.553.923-.29.236-.661.362-1.04.355z" fill="#282928"/><path d="M220.641 85.631a3.162 3.162 0 01-1.622-.286 3.032 3.032 0 01-1.231-1.058c-1.194-1.92.797-4.93 1.393-5.762a1.29 1.29 0 011.859-.322c.143.092.264.21.36.345a1.188 1.188 0 01-.028 1.386c-.796 1.151-1.461 2.623-1.261 3.072h.929c.173-.017.351 0 .518.048.169.048.325.13.459.236a1.275 1.275 0 01.483.867 1.257 1.257 0 01-.294.943 1.347 1.347 0 01-.899.466l-.666.065zm2.123 9.284a1.37 1.37 0 01-.894-.33 1.264 1.264 0 01-.384-1.324 1.27 1.27 0 01.648-.762 1.34 1.34 0 01.498-.147c.267 0 6.437-.512 6.704-4.865.035-.345.204-.665.477-.89.273-.228.624-.343.983-.326.171.008.34.05.494.123a1.22 1.22 0 01.7 1.22c-.399 5.315-6.106 7.108-9.158 7.3h-.068zm.467 30.216a1.222 1.222 0 01-.676-.186 1.154 1.154 0 01-.453-.518 1.182 1.182 0 01.117-1.421c.115-.13.256-.234.414-.307h.134c2.056-1.089 3.25-1.794 3.384-3.137a45.822 45.822 0 00-1.128-14.726c-.044-.303.03-.613.203-.87.174-.257.438-.445.743-.531.306-.083.633-.06.921.067.291.128.522.351.655.629a44.515 44.515 0 011.261 15.686c-.265 2.752-2.789 4.098-4.778 5.122h-.134a1.312 1.312 0 01-.663.192zm31.128-14.084a1.359 1.359 0 01-.652-.178 1.303 1.303 0 01-.477-.464l-1.062-1.728c-3.8-5.342-6.107-11.537-6.703-17.988l-.863-9.156.663-.385c1.194-.767 4.446-3.264 4.845-5.762a2.94 2.94 0 00-.048-1.319 3.04 3.04 0 00-.615-1.176c-.531-.642-1.261-1.344-1.926-1.282-.663.065-2.388 2.113-2.919 3.457a1.292 1.292 0 01-.704.757 1.368 1.368 0 01-1.501-.266 1.267 1.267 0 01-.291-.434 1.188 1.188 0 01-.088-.512c.006-.176.049-.347.127-.504.2-.45 1.927-4.61 4.979-4.993 1.593-.257 3.053.512 4.446 2.24a5.61 5.61 0 011.09 2.118 5.47 5.47 0 01.104 2.363c-.596 3.265-3.915 5.955-5.375 6.979l.73 7.683c.594 6.004 2.739 11.772 6.24 16.771h.065l1.129 1.794c.156.292.193.631.108.948-.087.32-.29.596-.572.78a1.57 1.57 0 01-.73.257z" fill="#282928"/><path d="M237.301 54.453s-27.81 16.325-38.628 14.788c-10.818-1.536-1.991-42.19 29.733-39.756 31.725 2.432 30.598 30.922 22.103 42.636 0 0-2.323-5.57-8.297 2.818 0 0-6.04-14.084-4.911-20.486z" fill="#282928"/><path d="M240.62 34.926s4.446-21.895 21.502-14.34c17.058 7.554.73 34.764 23.827 50.639 23.097 15.877 23.363 1.985 26.88-3.327 3.518-5.315 8.562 15.3-4.91 27.014-13.475 11.717-37.234 30.731-60.398-7.168l-1.525-5.57s10.751-5.058 4.513-10.053c-6.24-4.992-9.889-37.195-9.889-37.195z" fill="#282928"/><path d="M246.81 35.998c-.622-1.624-2.478-2.46-4.147-1.864-1.668.595-2.513 2.393-1.891 4.02l2.424 6.321c.624 1.626 2.481 2.46 4.149 1.867 1.666-.596 2.514-2.395 1.89-4.021l-2.425-6.323zm2.902 31.195h-.531a1.385 1.385 0 01-.434-.294 1.243 1.243 0 01-.229-1.436s2.587-5.952.663-14.212a1.14 1.14 0 01-.037-.506 1.15 1.15 0 01.18-.476 1.242 1.242 0 01.853-.554c.169-.038.345-.044.518-.017.171.03.336.09.483.178.15.09.278.207.38.343.099.137.173.292.212.455 2.123 9.092-.73 15.558-.797 15.815a1.37 1.37 0 01-.527.522 1.448 1.448 0 01-.734.182z" fill="#fff"/><path d="M160.843 202.339a2.23 2.23 0 00.211 1.919c.175.284.416.53.699.718.284.189.607.316.947.372 9.293 1.537 38.827 1.344 48.651-8.194 11.68-11.267 14.202-30.347 14.202-30.347s17.786 1.474 24.956 39.181c0 0 0 6.404 4.578 5.89 4.58-.512 65.043-19.078 62.521-32.33-2.522-13.253-18.85-8.322-35.574-37.26l10.619-2.945s-12.147-38.731-40.619-28.937c0 0-14.27 22.536-22.897 3.906 0 0-21.836 3.456-21.836 29.449 0 25.991-5.111 51.407-38.627 40.972a2.533 2.533 0 00-1.835.142 2.4 2.4 0 00-1.218 1.331l-4.778 16.133z" fill="#3474C9"/><path d="M229.403 168.473c-2.687-.002-5.271-.986-7.234-2.752-3.32-3.075-7.168-8.003-6.572-14.277l1.062-9.796c.034-.328.197-.631.457-.846.26-.215.596-.324.938-.305a1.346 1.346 0 01.901.462 1.258 1.258 0 01.293.944l-.997 9.796c-.531 5.185 2.856 9.476 5.777 12.164a7.975 7.975 0 003.343 1.791 8.184 8.184 0 003.824.067l15.929-3.587a1.383 1.383 0 011.146-.004c.18.084.338.203.464.353.126.149.212.322.26.508a1.263 1.263 0 01-.245 1.083 1.345 1.345 0 01-1.029.493l-15.929 3.649c-.782.18-1.584.268-2.388.257z" fill="#282928"/><path d="M290.131 133.199a52.491 52.491 0 012.853 6.848c4.182 12.101 11.349 36.493 6.836 41.934l-48.449 32.394a3.793 3.793 0 01-1.369.598 3.858 3.858 0 01-2.89-.523 3.71 3.71 0 01-1.051-1.034l-5.907-8.58a3.54 3.54 0 01.137-4.269 3.732 3.732 0 011.192-.981c11.281-5.824 44.598-23.75 42.076-29.832-3.053-7.363-8.692-24.521-8.692-24.521l15.264-12.034z" fill="#3474C9"/><path d="M256.283 193.632a1.205 1.205 0 01-.555-.107 1.183 1.183 0 01-.442-.34 1.238 1.238 0 01-.286-.416 1.168 1.168 0 01.037-.98c.076-.153.184-.287.317-.397.199-.193 20.442-17.604 23.363-25.991 2.322-6.786-7.566-24.2-11.549-30.282a1.299 1.299 0 01-.166-.972c.073-.334.275-.627.563-.821a1.437 1.437 0 011.007-.161c.347.071.65.266.852.546.598.959 15 23.175 11.815 32.522-3.187 9.346-23.231 26.375-24.094 27.079-.115.107-.249.19-.398.245a1.222 1.222 0 01-.464.075zm.531 18.503a1.295 1.295 0 01-.656-.168 1.26 1.26 0 01-.473-.472 1.176 1.176 0 01-.158-.963 1.205 1.205 0 01.622-.765c.399-.257 40.354-23.433 42.345-45.52a1.27 1.27 0 01.436-.886c.13-.115.279-.201.444-.257a1.38 1.38 0 01.513-.073c.358.033.689.196.926.46.234.263.355.602.335.948-2.123 23.431-41.944 46.544-43.671 47.503a1.16 1.16 0 01-.663.193z" fill="#282928"/><path d="M245.066 87.68s.267 1.408.663 4.865c.598 5.057 3.982 12.548 7.235 17.478 0 0-12.08 14.659-14.602 11.139-2.522-3.521 6.704-33.483 6.704-33.483zm-39.225-39.758a1.536 1.536 0 01-.73-.192 1.338 1.338 0 01-.563-.82 1.298 1.298 0 01.166-.972c7.566-11.46 16.326-11.844 16.658-11.844a1.37 1.37 0 01.96.33 1.285 1.285 0 01.435.887c0 .334-.128.658-.362.907a1.405 1.405 0 01-.899.437c-.399 0-7.765.45-14.536 10.692a1.31 1.31 0 01-.488.426 1.36 1.36 0 01-.641.149zm74.336 28.49a1.293 1.293 0 01-.797-.257c-8.032-5.697-11.815-16.517-11.947-16.964a1.19 1.19 0 01-.085-.49 1.202 1.202 0 01.433-.87c.133-.11.284-.191.449-.241a1.366 1.366 0 011.454.332c.119.126.212.274.271.435 0 .13 3.65 10.5 11.017 15.75.223.16.388.386.47.642.085.257.08.532-.006.787a1.292 1.292 0 01-.483.634 1.372 1.372 0 01-.776.242zm-59.934 130.985l-1.127-14.404-15.862 2.625 4.047 12.61s8.628 1.346 12.942-.831z" fill="#fff"/><path d="M212.876 209.894a50.876 50.876 0 01-5.774-.384l-.795-.128-4.78-14.789 18.783-3.074 1.261 16.582-.73.384c-2.191 1.152-5.309 1.409-7.965 1.409zm-4.513-2.817c2.524.32 7.433.577 10.486-.512l-.994-12.099-12.877 2.176 3.385 10.435z" fill="#282928"/><path d="M223.629 227.18l2.455 8.515-17.587.896v-12.675l2.388.19a2.18 2.18 0 011.085.299c.327.19.594.464.774.79 1.061 1.793 3.915 4.93 10.885 1.985z" fill="#fff"/><path d="M207.169 237.935V222.57l3.85.257a3.655 3.655 0 011.688.506 3.52 3.52 0 011.233 1.222c1.126 1.984 3.583 3.842 9.158 1.472l1.393-.577 3.32 11.461-20.642 1.024zm2.654-12.613v9.923l14.536-.704-1.659-5.632c-7.036 2.368-10.088-1.346-11.085-3.137a1.062 1.062 0 00-.795-.45h-.997z" fill="#282928"/><path d="M473.439 123.597s-13.479-4.41-24.745 7.818c-11.269 12.229-4.027 27.663 10.487 34.048 14.514 6.385 31.928-9.649 30.328-22.532-1.601-12.887-16.07-19.334-16.07-19.334z" fill="#3474C9"/><path d="M470.449 132.607s-7.729-2.537-14.183 4.452c-6.453 6.99-2.32 15.836 6.029 19.484 8.35 3.646 18.186-5.544 17.32-12.885-.863-7.339-9.166-11.051-9.166-11.051z" fill="#F9F9F9"/><path d="M492.042 193.012s-13.476-4.408-24.744 7.818c-11.268 12.231-4.028 27.663 10.486 34.049 14.517 6.386 31.825-9.63 30.33-22.535-1.493-12.903-16.072-19.332-16.072-19.332z" fill="#3474C9"/><path d="M488.991 201.978s-7.668-2.493-14.119 4.498c-6.454 6.99-2.322 15.834 5.966 19.436 8.285 3.602 18.202-5.436 17.383-12.837-.82-7.404-9.23-11.097-9.23-11.097z" fill="#F9F9F9"/><path d="M511.483 154.592l-83.078 40.462a1.846 1.846 0 00-.576 2.9l5.39 5.395a1.764 1.764 0 002.052.435l87.265-39.054a1.76 1.76 0 001.081-1.482 1.785 1.785 0 00-.179-.934 1.796 1.796 0 00-.64-.708l-9.532-6.865a1.707 1.707 0 00-.871-.33 1.676 1.676 0 00-.912.181z" fill="#3474C9"/></svg>