<svg width="468" height="468" fill="none" xmlns="http://www.w3.org/2000/svg"><path d="M335.544 55.976H136.941a5.447 5.447 0 00-5.446 5.446v345.056a5.45 5.45 0 001.595 3.852 5.45 5.45 0 003.851 1.594h198.603a5.452 5.452 0 003.85-1.594 5.45 5.45 0 001.596-3.852V61.422a5.449 5.449 0 00-5.446-5.446zM325.422 359.46a5.444 5.444 0 01-5.446 5.446h-166.56a5.442 5.442 0 01-5.446-5.446V85.385a5.443 5.443 0 015.446-5.446h166.56a5.444 5.444 0 015.446 5.446V359.46z" fill="#F9F9F9"/><path d="M335.544 412.832H136.941a6.353 6.353 0 01-6.354-6.354V61.422a6.356 6.356 0 016.354-6.354h198.603a6.313 6.313 0 015.881 3.915c.318.774.477 1.603.471 2.439v345.056a6.353 6.353 0 01-6.352 6.354zM136.941 56.883a4.537 4.537 0 00-4.538 4.539v345.056a4.536 4.536 0 004.538 4.538h198.603a4.537 4.537 0 004.538-4.538V61.422a4.495 4.495 0 00-4.538-4.539H136.941zm183.035 308.931h-166.56a6.356 6.356 0 01-6.354-6.354V85.385a6.352 6.352 0 016.354-6.354h166.56a6.355 6.355 0 016.354 6.354V359.46a6.35 6.35 0 01-6.354 6.354zM153.416 80.846a4.541 4.541 0 00-4.539 4.539V359.46a4.542 4.542 0 004.539 4.539h166.56a4.537 4.537 0 004.538-4.539V85.385a4.535 4.535 0 00-4.538-4.539h-166.56z" fill="#282928"/><path d="M240.145 401.759c7.419 0 13.435-6.4 13.435-14.297 0-7.895-6.016-14.296-13.435-14.296-7.42 0-13.433 6.401-13.433 14.296 0 7.897 6.013 14.297 13.433 14.297zm39.711-338.431h-81.101a4.039 4.039 0 00-4.039 4.04v2.064a4.04 4.04 0 004.039 4.04h81.101a4.04 4.04 0 004.039-4.04v-2.065a4.04 4.04 0 00-4.039-4.039zM119.151 292.155h-.045a.857.857 0 01-.825-.594.856.856 0 01-.038-.359l.454-8.168a.914.914 0 01.298-.63.887.887 0 01.304-.181.895.895 0 01.351-.052.862.862 0 01.862.953l-.453 8.168a.954.954 0 01-.908.863zm-36.257-19.852l-4.927 5.396 75.99 69.389 4.927-5.396-75.99-69.389z" fill="#282928"/><path d="M75.187 205.53l-64 72.085a3.222 3.222 0 00.27 4.549l38.354 34.051a3.22 3.22 0 004.55-.27l63.999-72.084a3.222 3.222 0 00-.27-4.549L79.736 205.26a3.222 3.222 0 00-4.549.27z" fill="#3474C9"/><path d="M97.548 282.943s-5.9 3.45-1.68 10.802c4.222 7.352 3.405-4.131 5.447-6.9 2.042-2.768-3.767-3.902-3.767-3.902z" fill="#F9F9F9"/><path d="M92.737 291.43s12.526-1.861 13.298-.908c.771.953 1.361 1.134 3.404 2.905 2.042 1.769 5.128 2.042 6.081 3.312.953 1.271-7.488 9.667-9.122 8.668-1.634-.998-1.407-1.906-1.407-1.906s-5.582.818-5.945-1.678c0 0-5.583-2.996-4.267-4.811 0 0-4.356-3.949-2.042-5.582z" fill="#F9F9F9"/><path d="M106.443 306.634a2.198 2.198 0 01-.908-.183 2.952 2.952 0 01-1.634-1.769 4.547 4.547 0 01-3.449-.045c-1.543-.637-2.405-2.089-2.814-2.995a3.744 3.744 0 01-2.813-.682c-1.316-.999-1.725-2.722-1.816-3.766a3.007 3.007 0 01-1.407-.953c-1.407-1.726-.907-4.947-.862-5.31a.91.91 0 01.374-.578.915.915 0 01.67-.149.955.955 0 01.771 1.043c-.136.727-.317 2.905.454 3.858a1.2 1.2 0 00.388.297c.149.07.31.107.475.112h.907v.908c0 .635.182 2.405 1.135 3.085.953.682 1.18.454 2.042.183l.862-.228.273.863s.59 2.042 2.087 2.677c.772.318 1.77.228 2.86-.362l1.134-.544.182 1.224c.091.409.363 1.272.862 1.452.499.181 1.135-.135 1.997-.817.862-.68 1.634-1.315 2.451-1.906 2.178-1.634 4.402-3.267 3.857-4.22a2.453 2.453 0 00-1.997-1.317c-1.18-.135-2.405.59-3.494 1.952a.95.95 0 01-1.316.136.951.951 0 01-.136-1.27c1.497-1.861 3.313-2.769 5.083-2.634.72.057 1.414.294 2.017.69a4.281 4.281 0 011.432 1.58c1.316 2.315-1.316 4.267-4.357 6.535-.772.591-1.634 1.181-2.405 1.861-.772.682-2.043 1.272-2.905 1.272z" fill="#282928"/><path d="M108.849 298.283a.77.77 0 01-.356-.083.756.756 0 01-.279-.235.848.848 0 01-.257-.646.864.864 0 01.302-.626c.227-.226.908-.998.817-1.633-.091-.635-.046-.499-.681-.908-1.815-1.134-4.538 1.588-4.538 1.588a.909.909 0 01-1.317-1.225c.137-.181 3.722-3.857 6.854-1.861a2.955 2.955 0 011.497 2.225c.182 1.633-1.225 2.995-1.407 3.131a.914.914 0 01-.635.273z" fill="#282928"/><path d="M106.398 292.973a.958.958 0 01-.616-.261.962.962 0 01-.292-.602c-.045-1.044-.454-1.27-.59-1.362-.862-.499-2.859.273-3.676.727a.958.958 0 01-.682.055.957.957 0 01-.543-.418.907.907 0 01.363-1.225c.363-.228 3.404-1.816 5.446-.727.635.364 1.407 1.136 1.498 2.86a.875.875 0 01-.203.653.864.864 0 01-.614.3h-.091z" fill="#282928"/><path d="M98.728 296.695h-.317c-1.816-.183-4.403-1.906-5.537-4.811-.726-1.726-1.362-5.22 1.997-9.123 4.765-5.491 6.943-5.491 10.71-4.992 1.695.275 3.416.351 5.129.226a.942.942 0 01.354.034.937.937 0 01.54.444.909.909 0 01-.098 1.009.906.906 0 01-.615.329 25.147 25.147 0 01-5.537-.226c-3.177-.409-4.765-.637-9.122 4.357-2.587 3.04-2.36 5.627-1.679 7.26.68 1.635 2.905 3.587 4.04 3.677a.582.582 0 00.32-.008.58.58 0 00.27-.174c.68-1.044.407-1.997.044-3.086-.363-1.089-.726-2.406.227-3.676a14.31 14.31 0 013.813-3.358.899.899 0 01.687-.07.9.9 0 01.175 1.658 12.34 12.34 0 00-3.222 2.859c-.363.5-.227 1.044.091 2.088.317 1.043.816 2.814-.318 4.584a2.276 2.276 0 01-1.952.999zm132.25-138.105c-3.313 0-7.126-.681-11.483-2.088a.956.956 0 01-.59-1.134.853.853 0 01.782-.643c.12-.007.24.011.353.053 9.622 3.086 16.429 2.632 20.195-1.407 9.441-10.03-1.769-38.849-1.904-39.122a.886.886 0 01.023-.704.909.909 0 01.521-.476.955.955 0 011.179.5c.454 1.225 11.71 30.18 1.498 41.027-2.496 2.677-6.036 3.994-10.574 3.994zm-20.695 20.649h-.092a.872.872 0 01-.34-.103.897.897 0 01-.443-.539.931.931 0 01-.033-.356l.545-5.809c.257-2.418.195-4.86-.183-7.262l-2.995-19.787c-1.497-.409-5.355-1.725-6.898-4.402a5.14 5.14 0 01-.698-2.034 5.143 5.143 0 01.199-2.142c.575-1.845 1.528-2.934 2.859-3.267 2.632-.59 5.401 2.405 5.719 2.768a.906.906 0 01-.125 1.186.911.911 0 01-1.192.04c-.635-.681-2.677-2.497-3.993-2.224-.635.181-1.134.817-1.498 2.042-.16.446-.22.921-.171 1.392.046.472.198.926.443 1.331 1.544 2.632 6.308 3.676 6.354 3.676l.636.136 3.176 21.013c.379 2.554.44 5.147.181 7.716l-.59 5.81a.857.857 0 01-.861.815z" fill="#282928"/><path d="M233.677 128.795c.713-.144 1.114-1.136.896-2.218-.219-1.081-.972-1.841-1.685-1.697-.713.144-1.114 1.137-.896 2.218.219 1.081.972 1.841 1.685 1.697zm-14.124 3.368c.711-.144 1.112-1.137.895-2.218-.218-1.081-.973-1.841-1.685-1.697-.712.144-1.113 1.137-.895 2.218.217 1.081.972 1.841 1.685 1.697zm10.291 7.093a.907.907 0 01-.863-.681.862.862 0 01.635-1.089c.727-.227.999-.454 1.044-.59.045-.136-1.134-1.861-2.313-2.632a.952.952 0 01-.228-1.271.902.902 0 011.271-.227c.59.363 3.404 2.405 3.041 4.402-.136.953-.954 1.68-2.315 2.043l-.272.045zm8.259 36.943a.86.86 0 01-.771-.409 44.556 44.556 0 01-5.9-16.882.912.912 0 011.815-.183 42.544 42.544 0 005.628 16.112.951.951 0 01-.318 1.271.812.812 0 01-.454.091z" fill="#282928"/><path d="M228.164 113.205a.856.856 0 01-.908-.862.904.904 0 01.863-.953l2.995-.091a.892.892 0 01.351.052.897.897 0 01.516.466.933.933 0 01.035.695.913.913 0 01-.812.602l-3.04.091z" fill="#F9F9F9"/><path d="M220.222 119.241c54.506 1.362 35.219-28.637 16.474-20.559a.813.813 0 01-1.031-.24.819.819 0 01-.149-.35c-.589-3.494-3.313-13.025-14.977-4.311a.77.77 0 01-.953 0c-2.542-1.906-14.204-9.849-17.246 2.133a2.72 2.72 0 01-3.359 1.997c-5.082-1.362-15.157-2.406-15.021 11.21.136 13.615 10.937 26.867 15.612 31.859.545.59.136-1.18.091-1.951a3.587 3.587 0 011.407-3.222c7.987-6.445 7.669-11.301 7.533-14.569-.226-6.081 1.679-3.857 3.949-3.267.318.09 7.352 1.27 7.67 1.27z" fill="#282928"/><path d="M247.725 110.845a.718.718 0 01-.635-.363.722.722 0 01.317-.953c.862-.408 3.087-1.861 3.04-3.313-.045-1.452-1.633-2.133-2.95-2.723a.68.68 0 01.591-1.225c2.406 1.089 3.676 2.405 3.721 3.903.045 2.541-3.404 4.402-3.766 4.584l-.318.09zm-13.752 3.313c-1.043 0-2.269-.09-3.767-.227a.724.724 0 01-.59-.771.684.684 0 01.245-.44.688.688 0 01.481-.15c4.447.499 6.444.045 8.215-.318.499-.091.908-.227 1.407-.272a.673.673 0 01.58.044.68.68 0 01-.354 1.272l-1.315.272a20.766 20.766 0 01-4.902.59zm-12.707-14.931a.72.72 0 01-.499-.227.689.689 0 01-.174-.486.689.689 0 01.219-.467c2.722-2.496 7.443-3.132 7.623-3.132a.684.684 0 01.773.59.689.689 0 01-.15.48.686.686 0 01-.44.247c-.045.045-4.493.59-6.898 2.814a.824.824 0 01-.454.181zm-30.952 19.107a.73.73 0 01-.682-.5l-1.044-3.767a.67.67 0 01-.029-.267.668.668 0 01.245-.468.676.676 0 01.238-.127.653.653 0 01.509.048.643.643 0 01.309.406l1.089 3.812a.634.634 0 01-.454.817l-.181.046z" fill="#F9F9F9"/><path d="M225.487 152.735a4.638 4.638 0 01-1.362-.182c-3.993-1.089-6.037-6.671-6.263-9.439-.091-1.317.226-2.133.998-2.451.772-.318 1.134-.318 1.997.635 2.541 2.678 9.168 2.723 11.165 2.678a1.904 1.904 0 011.633.953c.158.299.228.636.203.972a1.8 1.8 0 01-.338.934c-2.724 3.903-5.401 5.9-8.033 5.9zm-5.265-8.986c.409 1.997 1.724 5.355 3.948 6.399 2.223 1.044 5.038-1.27 6.989-3.857h-.09c-3.223 0-7.942-.454-10.847-2.542zm8.123-20.014a1.275 1.275 0 01-.771-.318 1.138 1.138 0 01-.348-.785c-.007-.297.1-.586.303-.804 3.222-3.494 7.352-1.724 9.121-.317a1.133 1.133 0 01.37 1.217 1.153 1.153 0 01-.555.677 1.15 1.15 0 01-1.267-.124c-.317-.273-3.494-2.633-5.99.091-.228.23-.539.36-.863.363zm-15.157 4.538a1.092 1.092 0 01-.636-.227 1.087 1.087 0 01-.317-1.543c3.176-4.856 7.759-3.676 7.987-3.631a1.134 1.134 0 11-.59 2.179c-.137 0-3.268-.727-5.492 2.677a1.128 1.128 0 01-.952.545z" fill="#282928"/><path d="M119.604 283.079s29.727-25.688 36.217-35.763a15.93 15.93 0 014.311-4.402c6.718-4.676 22.33-15.748 28.138-21.967l-12.344-17.245s-23.282 23.826-28.138 30.725c-3.903 5.492-16.111 8.351-33.63 40.482l-2.859 3.768" fill="#F9F9F9"/><path d="M119.604 283.987a.95.95 0 01-.68-.318.907.907 0 01.09-1.271c.318-.272 29.682-25.733 36.036-35.581a17.78 17.78 0 014.538-4.675c6.309-4.357 21.377-14.976 27.503-21.285l-11.301-15.748c-4.039 4.174-22.964 23.781-27.276 29.863-1.134 1.588-2.859 2.905-4.992 4.629-5.9 4.63-15.794 12.344-28.547 35.763l-.091.135-2.859 3.722a.867.867 0 01-.605.35.843.843 0 01-.665-.214.908.908 0 01-.182-1.27l2.859-3.677c12.889-23.69 22.965-31.541 28.955-36.262 2.133-1.678 3.677-2.859 4.63-4.22 4.901-6.898 27.276-29.863 28.229-30.861l.772-.772 13.388 18.743-.499.545c-5.855 6.308-21.741 17.518-28.275 22.056a15.39 15.39 0 00-4.039 4.176c-6.49 10.075-35.173 34.901-36.399 35.944a.949.949 0 01-.59.228zm-3.948 14.522a.747.747 0 01-.327-.065.768.768 0 01-.263-.206.863.863 0 01-.045-1.272 16.632 16.632 0 003.177-5.491.922.922 0 01.16-.323.918.918 0 01.616-.345.904.904 0 01.358.033.907.907 0 01.59 1.134 17.343 17.343 0 01-3.585 6.219.824.824 0 01-.681.316z" fill="#282928"/><path d="M369.62 272.849l7.093 1.756 24.72-99.891-7.092-1.755-24.721 99.89z" fill="#F9F9F9"/><path d="M377.206 275.908l-8.849-2.178 25.097-101.662 8.804 2.179-25.052 101.661zm-6.672-3.494l5.311 1.316 24.234-98.167-5.31-1.316-24.235 98.167z" fill="#282928"/><path d="M349.307 170.762l90.512 23.327a4.774 4.774 0 005.814-3.43l12.051-46.757a4.776 4.776 0 00-3.432-5.814l-90.512-23.327a4.771 4.771 0 00-5.812 3.431l-12.051 46.756a4.773 4.773 0 003.43 5.814z" fill="#282928"/><path d="M387.69 190.041s6.807-.409 7.352 8.079c.544 8.486-5.129-1.59-8.351-2.724-3.223-1.134.999-5.355.999-5.355z" fill="#F9F9F9"/><path d="M396.358 194.398s-11.438 5.401-11.573 6.625c-.136 1.226-.5 1.726-1.18 4.312-.681 2.587-3.132 4.585-3.223 6.128-.09 1.543 11.574 3.948 12.39 2.178.817-1.769.092-2.406.092-2.406s5.082-2.405 4.039-4.674c0 0 2.995-5.583.862-6.354 0 0 1.451-5.719-1.407-5.809z" fill="#F9F9F9"/><path d="M391.094 215.275h-.818l-3.04-.227c-3.768-.181-7.034-.364-7.262-2.996a4.51 4.51 0 01.351-2.106 4.477 4.477 0 011.284-1.706c1.405-1.089 3.402-1.315 5.672-.635a.905.905 0 01.59 1.134.938.938 0 01-.159.323.941.941 0 01-.273.234.939.939 0 01-.344.111.884.884 0 01-.358-.032c-1.679-.546-3.086-.454-3.994.272a2.61 2.61 0 00-.758 1.017 2.62 2.62 0 00-.195 1.253c.09 1.043 2.859 1.179 5.536 1.315l3.133.227c1.089.091 1.859-.045 2.132-.408.272-.364.045-1.317-.136-1.679l-.499-1.136 1.225-.135c1.271-.181 2.132-.59 2.586-1.362.454-.771.273-3.314.273-3.359l-.273-.861.863-.273c.863-.271 1.362-.68 1.588-1.271.228-.59-.407-2.723-.771-3.222l-.499-.727.726-.544a.949.949 0 00.499-.816c.137-1.181-1.225-2.95-1.724-3.449a.921.921 0 01-.273-.658.93.93 0 01.574-.86.933.933 0 01.713 0 .94.94 0 01.301.201c.228.273 2.451 2.677 2.225 4.902a2.777 2.777 0 01-.635 1.543c.454.953 1.134 2.631.589 4.176a3.59 3.59 0 01-1.996 2.087c.181.998.271 2.677-.635 4.084a4.684 4.684 0 01-2.86 1.952 3.153 3.153 0 01-.408 2.405c-.545.818-1.543 1.226-2.95 1.226z" fill="#282928"/><path d="M386.237 209.238h-.135c-.227 0-2.133-.363-2.905-1.814-.318-.546-.545-1.453 0-2.724 1.497-3.359 6.535-2.27 6.717-2.224a.87.87 0 01.563.377.861.861 0 01.117.668.902.902 0 01-.373.575.901.901 0 01-.67.15c-.091-.045-3.813-.772-4.676 1.179-.316.727-.135 1.046-.09 1.136.045.091 1.362.863 1.59.908a.911.911 0 01.524 1.598.906.906 0 01-.662.216v-.045z" fill="#282928"/><path d="M385.329 203.474a.996.996 0 01-.77-.453c-.863-1.497-.637-2.588-.319-3.222 1.089-2.043 4.538-2.406 4.902-2.451a.9.9 0 01.668.201.906.906 0 01.296.97.915.915 0 01-.783.645c-.953.09-2.995.544-3.449 1.452-.091.136-.272.544.273 1.498a.948.948 0 01.073.672.949.949 0 01-.391.552 1.027 1.027 0 01-.5.136z" fill="#282928"/><path d="M392.955 202.568a2.084 2.084 0 01-.863-.183c-1.906-.861-2.406-2.496-2.769-3.675-.362-1.181-.499-1.543-1.089-1.771a11.595 11.595 0 00-4.266-.544.895.895 0 01-.351-.052.894.894 0 01-.515-.466.916.916 0 01-.088-.345.862.862 0 01.203-.652.897.897 0 01.276-.214.89.89 0 01.339-.087 13.926 13.926 0 015.037.682c1.452.544 1.861 1.861 2.179 2.95.319 1.088.635 1.996 1.769 2.496.183.09.364 0 .637-.183.271-.181 1.769-2.95 1.27-5.309-.499-2.36-1.588-3.993-5.446-5.038-6.354-1.769-7.579-.726-9.984 1.407a26.52 26.52 0 01-4.448 3.223.865.865 0 01-1.226-.364.909.909 0 01.318-1.224 23.893 23.893 0 004.176-2.997c2.858-2.541 4.674-3.766 11.663-1.814 4.992 1.361 6.354 4.628 6.717 6.444.68 3.04-.499 5.945-1.906 7.079a2.63 2.63 0 01-1.633.637z" fill="#282928"/><path d="M373.848 194.08l-4.448-1.498c-32.449-17.018-44.159-12.616-50.422-15.021-7.897-3.042-40.484-9.941-40.484-9.941l-.68 21.196c8.26 1.952 27.367 2.496 35.582 2.632 2.066.026 4.105.474 5.991 1.316 11.027 4.765 50.013 9.621 50.013 9.621" fill="#F9F9F9"/><path d="M369.4 203.293h-.136c-1.589-.226-39.212-4.947-50.241-9.713a14.931 14.931 0 00-5.627-1.224c-7.989-.137-27.412-.682-35.808-2.679l-.727-.181.772-23.01 1.044.228c1.362.317 32.768 6.989 40.619 9.984 1.543.59 3.494.771 6.217.953 7.625.59 20.333 1.543 44.204 14.115l4.402 1.498a.837.837 0 01.32.159c.095.076.172.17.228.276a.872.872 0 01.043.699.929.929 0 01-.185.309.936.936 0 01-.29.212.902.902 0 01-.706.023l-4.583-1.543c-23.599-12.389-36.081-13.342-43.569-13.932-2.769-.228-4.947-.363-6.717-1.045-6.944-2.677-33.629-8.487-39.303-9.711l-.635 19.378c8.577 1.816 27.004 2.315 34.674 2.451 2.186.036 4.345.499 6.354 1.362 10.801 4.674 49.377 9.53 49.741 9.575a.872.872 0 01.602.332.862.862 0 01.17.667.87.87 0 01-.268.581.868.868 0 01-.595.236zm11.301 9.894h-.183a16.978 16.978 0 01-6.444-3.177.852.852 0 01-.314-.961.896.896 0 01.178-.31.907.907 0 011.27-.136 15.867 15.867 0 005.719 2.814.952.952 0 01.68 1.089.864.864 0 01-.906.681z" fill="#282928"/><path d="M175.065 206.333a4.723 4.723 0 011.043-6.715c2.813-1.997 7.034-5.629 12.844-12.254 2.632-2.95 11.754-7.897 16.383-10.031a5.778 5.778 0 014.585-.136c4.31 1.861 15.294 4.084 29.861-10.53 1.272-1.224 13.526-5.717 39.531-2.677a4.307 4.307 0 013.812 3.904l1.588 20.785a4.355 4.355 0 01-3.449 4.585l-5.4.998a2.588 2.588 0 00-2.088 2.496c-.363 11.664-1.543 68.802 7.215 69.392 3.449.228-25.097 20.787-56.548 10.438 0 0 2.451-9.984-1.452-20.331-3.45-9.169-17.337-32.54-20.469-37.715a.95.95 0 00-.704-.459.96.96 0 00-.794.278l-5.672 5.672a4.76 4.76 0 01-5.554.816 4.76 4.76 0 01-1.527-1.27l-13.205-17.246z" fill="#3474C9"/><path d="M243.095 280.039a102.883 102.883 0 01-26.55-3.542.895.895 0 01-.557-.432.91.91 0 01-.078-.702.83.83 0 01.161-.319.843.843 0 01.276-.227.844.844 0 01.697-.043c.138 0 13.435 3.948 29.093 3.404 20.83-.727 35.808-8.579 44.475-23.374a.911.911 0 011.272-.318.96.96 0 01.391.554.945.945 0 01-.075.672c-8.895 15.159-24.824 23.554-46.063 24.28l-3.042.047zm27.231-174.05a.945.945 0 01-.727-.363.906.906 0 01.183-1.271l49.332-38.667a.905.905 0 011.207.187.905.905 0 01-.073 1.22l-49.377 38.713a.774.774 0 01-.545.181zm17.7 5.083a.91.91 0 01-.886-.769.908.908 0 01.613-1.001l49.379-17.563a.908.908 0 011.193.899.901.901 0 01-.604.825l-49.377 17.564-.318.045zm30.724 30.181h-.09l-40.573-3.812a.899.899 0 01-.399-.036.903.903 0 01-.509-1.317.889.889 0 01.272-.294.906.906 0 01.772-.123l40.619 3.812a.854.854 0 01.613.3.848.848 0 01.203.653.859.859 0 01-.908.817z" fill="#282928"/><path d="M369.4 202.385s3.449 5.493 5.22 6.898l-5.22-6.898z" fill="#F9F9F9"/><path d="M374.618 210.191a.823.823 0 01-.544-.226c-1.814-1.452-5.083-6.536-5.446-7.081a.956.956 0 01.273-1.27.841.841 0 01.321-.134.877.877 0 01.668.148.88.88 0 01.236.258c.953 1.497 3.722 5.583 5.084 6.672a.909.909 0 01.135 1.27.937.937 0 01-.323.263.938.938 0 01-.404.1z" fill="#282928"/><path d="M291.339 341.943l-18.381-.183a4.175 4.175 0 01-1.736-.379 4.212 4.212 0 01-2.439-4.387l2.632-20.103a4.223 4.223 0 014.176-3.677h13.16a4.223 4.223 0 014.176 3.677l2.632 20.241c.078.6.027 1.21-.15 1.789a4.276 4.276 0 01-2.316 2.639 4.277 4.277 0 01-1.754.383z" fill="#F9F9F9"/><path d="M291.339 342.849h-.045l-18.336-.181a4.982 4.982 0 01-3.858-1.771 5.222 5.222 0 01-1.225-4.038l2.632-20.06a5.132 5.132 0 015.084-4.493h13.162a5.094 5.094 0 013.401 1.274 5.086 5.086 0 011.681 3.219l2.632 20.242a5.213 5.213 0 01-1.27 4.084 5.114 5.114 0 01-1.744 1.278 5.11 5.11 0 01-2.114.446zm0-1.814a3.354 3.354 0 002.501-1.141c.314-.355.548-.773.688-1.226.139-.454.182-.93.125-1.401l-2.588-20.241a3.312 3.312 0 00-3.312-2.904h-13.162a3.266 3.266 0 00-3.268 2.904l-2.632 20.06c-.07.468-.037.946.095 1.401a3.295 3.295 0 001.802 2.069c.431.196.897.296 1.37.296l18.381.183z" fill="#282928"/><path d="M275.59 314.122h-.091a1.006 1.006 0 01-.607-.367 1.008 1.008 0 01-.209-.677c.136-1.044 1.315-10.438 4.902-12.663a3.096 3.096 0 012.812-.318c5.311 1.816 7.172 12.482 7.217 12.936a.845.845 0 01-.134.681.847.847 0 01-.591.362.915.915 0 01-.671-.149.92.92 0 01-.375-.578c-.454-2.767-2.45-10.302-6.035-11.572a1.401 1.401 0 00-1.27.181c-2.134 1.317-3.586 7.671-4.04 11.346a.91.91 0 01-.908.818z" fill="#282928"/><path d="M282.262 329.416c3.308 0 5.99-1.259 5.99-2.814 0-1.554-2.682-2.813-5.99-2.813-3.309 0-5.991 1.259-5.991 2.813 0 1.555 2.682 2.814 5.991 2.814z" fill="#3474C9"/><path d="M281.808 356.738a32.454 32.454 0 01-31.877-38.754 32.452 32.452 0 0158.81-11.73 32.451 32.451 0 015.471 18.034 32.491 32.491 0 01-32.404 32.45zm0-63.04a30.637 30.637 0 00-21.708 52.296 30.638 30.638 0 0047.153-4.669 30.645 30.645 0 005.145-17.037 30.638 30.638 0 00-30.59-30.59zm-44.159 16.249h-64.445a.907.907 0 110-1.816h64.445a.908.908 0 110 1.816zm-8.805 14.341h-47.29a.909.909 0 010-1.816h47.29a.908.908 0 110 1.816zm9.713 16.248h-62.539a.91.91 0 01-.643-1.551.908.908 0 01.643-.265h62.539a.91.91 0 01.642.265.908.908 0 01-.642 1.551z" fill="#282928"/></svg>