<svg width="65" height="60" fill="none" xmlns="http://www.w3.org/2000/svg"><g id="svg"><path id="Vector" d="M28.347 33.812c-3.926-4.503-2.825-10.496.785-13.582 3.529-3.015 8.872-2.96 12.284.09 3.7 3.303 4.188 8.682 1.399 12.536-2.708 3.736-8.33 5.388-13.187 2.084-.496.57-.992 1.138-1.498 1.724.199.18.37.343.587.542C27.01 39.137 25.314 41.05 23.59 43A745.306 745.306 0 0021 40.663c1.706-1.914 3.403-3.81 5.127-5.722.243.198.469.388.73.595.497-.577.984-1.146 1.49-1.724zm6.823 1.165c4.197.027 7.608-3.304 7.69-7.383.09-4.404-3.493-7.852-7.645-7.879-4.179-.027-7.572 3.34-7.635 7.482-.064 4.287 3.267 7.789 7.59 7.78z" fill="#B6B6B6"/></g></svg>