<svg width="48" height="48" fill="none" xmlns="http://www.w3.org/2000/svg"><g id="WhatsApp"><rect id="Rectangle" width="48" height="48" rx="24" fill="#0DC143"/><path id="Vector" d="M34.75 13.211c-2.572-2.648-6.13-4.086-9.762-4.086-7.719 0-13.924 6.281-13.848 13.924 0 2.422.68 4.768 1.816 6.887l-1.968 7.189 7.34-1.892c2.044 1.135 4.314 1.665 6.585 1.665 7.643 0 13.848-6.281 13.848-13.924 0-3.709-1.438-7.19-4.01-9.763zm-9.762 21.341c-2.043 0-4.086-.53-5.827-1.59l-.454-.226-4.389 1.135 1.135-4.314-.303-.454c-3.33-5.373-1.74-12.486 3.709-15.816 5.448-3.33 12.486-1.74 15.816 3.708 3.33 5.449 1.74 12.487-3.708 15.817-1.74 1.135-3.86 1.74-5.979 1.74zm6.66-8.4l-.833-.378s-1.21-.53-1.967-.909c-.076 0-.152-.075-.227-.075-.227 0-.379.076-.53.151 0 0-.076.076-1.135 1.287a.416.416 0 01-.378.227h-.076c-.076 0-.227-.076-.303-.152l-.378-.151c-.833-.378-1.59-.832-2.195-1.438-.151-.151-.378-.302-.53-.454-.53-.53-1.06-1.135-1.437-1.816l-.076-.151c-.076-.076-.076-.152-.151-.303 0-.151 0-.303.075-.378 0 0 .303-.379.53-.606.151-.151.227-.378.378-.53.152-.227.227-.53.152-.756-.076-.379-.984-2.422-1.211-2.876-.152-.227-.303-.303-.53-.379h-.832c-.152 0-.303.076-.454.076l-.076.076c-.151.076-.303.227-.454.303-.151.15-.227.302-.379.454-.53.68-.832 1.513-.832 2.346 0 .605.151 1.21.378 1.74l.076.227a12.607 12.607 0 002.8 3.86l.303.302c.227.227.454.379.605.606 1.59 1.362 3.406 2.346 5.449 2.875.227.076.53.076.757.152h.756c.379 0 .833-.152 1.136-.303.227-.151.378-.151.53-.303l.15-.151c.152-.151.303-.227.455-.378.151-.152.302-.303.378-.454.151-.303.227-.681.303-1.06v-.53s-.076-.075-.227-.151z" fill="#fff"/></g></svg>